<?xml version="1.0" encoding="UTF-8" standalone="no"?>
<!-- Created with Inkscape (http://www.inkscape.org/) -->

<svg
   xmlns:ns0="http://www.iki.fi/pav/software/textext/"
   xmlns:dc="http://purl.org/dc/elements/1.1/"
   xmlns:cc="http://creativecommons.org/ns#"
   xmlns:rdf="http://www.w3.org/1999/02/22-rdf-syntax-ns#"
   xmlns:svg="http://www.w3.org/2000/svg"
   xmlns="http://www.w3.org/2000/svg"
   xmlns:sodipodi="http://sodipodi.sourceforge.net/DTD/sodipodi-0.dtd"
   xmlns:inkscape="http://www.inkscape.org/namespaces/inkscape"
   width="116.46685mm"
   height="38.292721mm"
   viewBox="0 0 116.46685 38.292721"
   version="1.1"
   id="svg8"
   inkscape:version="0.92.3 (2405546, 2018-03-11)"
   sodipodi:docname="bayestheorem.svg">
  <defs
     id="defs2">
    <marker
       inkscape:stockid="Arrow2Lend"
       orient="auto"
       refY="0"
       refX="0"
       id="Arrow2Lend"
       style="overflow:visible"
       inkscape:isstock="true">
      <path
         id="path924"
         style="fill:#000000;fill-opacity:1;fill-rule:evenodd;stroke:#000000;stroke-width:0.625;stroke-linejoin:round;stroke-opacity:1"
         d="M 8.7185878,4.0337352 -2.2072895,0.01601326 8.7185884,-4.0017078 c -1.7454984,2.3720609 -1.7354408,5.6174519 -6e-7,8.035443 z"
         transform="matrix(-1.1,0,0,-1.1,-1.1,0)"
         inkscape:connector-curvature="0" />
    </marker>
    <marker
       inkscape:stockid="Arrow1Lend"
       orient="auto"
       refY="0"
       refX="0"
       id="Arrow1Lend"
       style="overflow:visible"
       inkscape:isstock="true">
      <path
         id="path906"
         d="M 0,0 5,-5 -12.5,0 5,5 Z"
         style="fill:#000000;fill-opacity:1;fill-rule:evenodd;stroke:#000000;stroke-width:1.00000003pt;stroke-opacity:1"
         transform="matrix(-0.8,0,0,-0.8,-10,0)"
         inkscape:connector-curvature="0" />
    </marker>
    <marker
       inkscape:stockid="Arrow1Mend"
       orient="auto"
       refY="0"
       refX="0"
       id="Arrow1Mend"
       style="overflow:visible"
       inkscape:isstock="true">
      <path
         id="path912"
         d="M 0,0 5,-5 -12.5,0 5,5 Z"
         style="fill:#000000;fill-opacity:1;fill-rule:evenodd;stroke:#000000;stroke-width:1.00000003pt;stroke-opacity:1"
         transform="matrix(-0.4,0,0,-0.4,-4,0)"
         inkscape:connector-curvature="0" />
    </marker>
    <marker
       inkscape:stockid="Arrow1Send"
       orient="auto"
       refY="0"
       refX="0"
       id="Arrow1Send"
       style="overflow:visible"
       inkscape:isstock="true">
      <path
         id="path918"
         d="M 0,0 5,-5 -12.5,0 5,5 Z"
         style="fill:#000000;fill-opacity:1;fill-rule:evenodd;stroke:#000000;stroke-width:1.00000003pt;stroke-opacity:1"
         transform="matrix(-0.2,0,0,-0.2,-1.2,0)"
         inkscape:connector-curvature="0" />
    </marker>
    <marker
       inkscape:stockid="Arrow2Lend"
       orient="auto"
       refY="0"
       refX="0"
       id="Arrow2Lend-0"
       style="overflow:visible"
       inkscape:isstock="true">
      <path
         inkscape:connector-curvature="0"
         id="path924-8"
         style="fill:#ff4081;fill-opacity:1;fill-rule:evenodd;stroke:#ff4081;stroke-width:0.625;stroke-linejoin:round;stroke-opacity:1"
         d="M 8.7185878,4.0337352 -2.2072895,0.01601326 8.7185884,-4.0017078 c -1.7454984,2.3720609 -1.7354408,5.6174519 -6e-7,8.035443 z"
         transform="matrix(-1.1,0,0,-1.1,-1.1,0)" />
    </marker>
    <marker
       inkscape:stockid="Arrow2Lend"
       orient="auto"
       refY="0"
       refX="0"
       id="Arrow2Lend-5"
       style="overflow:visible"
       inkscape:isstock="true">
      <path
         inkscape:connector-curvature="0"
         id="path924-9"
         style="fill:#000000;fill-opacity:1;fill-rule:evenodd;stroke:#000000;stroke-width:0.625;stroke-linejoin:round;stroke-opacity:1"
         d="M 8.7185878,4.0337352 -2.2072895,0.01601326 8.7185884,-4.0017078 c -1.7454984,2.3720609 -1.7354408,5.6174519 -6e-7,8.035443 z"
         transform="matrix(-1.1,0,0,-1.1,-1.1,0)" />
    </marker>
    <marker
       inkscape:stockid="Arrow2Lend"
       orient="auto"
       refY="0"
       refX="0"
       id="Arrow2Lend-1"
       style="overflow:visible"
       inkscape:isstock="true">
      <path
         inkscape:connector-curvature="0"
         id="path924-83"
         style="fill:#000000;fill-opacity:1;fill-rule:evenodd;stroke:#000000;stroke-width:0.625;stroke-linejoin:round;stroke-opacity:1"
         d="M 8.7185878,4.0337352 -2.2072895,0.01601326 8.7185884,-4.0017078 c -1.7454984,2.3720609 -1.7354408,5.6174519 -6e-7,8.035443 z"
         transform="matrix(-1.1,0,0,-1.1,-1.1,0)" />
    </marker>
  </defs>
  <sodipodi:namedview
     id="base"
     pagecolor="#ffffff"
     bordercolor="#666666"
     borderopacity="1.0"
     inkscape:pageopacity="0.0"
     inkscape:pageshadow="2"
     inkscape:zoom="1.979899"
     inkscape:cx="208.34208"
     inkscape:cy="98.757201"
     inkscape:document-units="mm"
     inkscape:current-layer="layer1"
     showgrid="false"
     inkscape:window-width="1600"
     inkscape:window-height="847"
     inkscape:window-x="1912"
     inkscape:window-y="173"
     inkscape:window-maximized="1" />
  <metadata
     id="metadata5">
    <rdf:RDF>
      <cc:Work
         rdf:about="">
        <dc:format>image/svg+xml</dc:format>
        <dc:type
           rdf:resource="http://purl.org/dc/dcmitype/StillImage" />
        <dc:title></dc:title>
      </cc:Work>
    </rdf:RDF>
  </metadata>
  <g
     inkscape:label="Layer 1"
     inkscape:groupmode="layer"
     id="layer1"
     transform="translate(-23.429462,-42.416666)">
    <g
       ns0:jacobian_sqrt="0.352778"
       inkscapeversion="0.92.3"
       ns0:alignment="middle center"
       ns0:scale="1.0"
       ns0:preamble="C:\\Users\\yannik.schaelte\\AppData\\Roaming\\inkscape\\extensions\\default_packages.tex"
       ns0:text="\\[\\pi(\\theta|y_{obs}) = \\frac{\\pi(y_{obs}|\\theta)\\pi(\\theta)}{\\pi(y_{obs})}\\]"
       ns0:pdfconverter="pstoedit"
       ns0:texconverter="pdflatex"
       ns0:version="0.8.1"
       word-spacing="normal"
       letter-spacing="normal"
       font-size-adjust="none"
       font-stretch="normal"
       font-weight="normal"
       font-variant="normal"
       font-style="normal"
       stroke-miterlimit="10.433"
       xml:space="preserve"
       transform="matrix(0.58894864,0,0,-0.58894864,-98.072727,442.29505)"
       id="g26521"
       style="font-style:normal;font-variant:normal;font-weight:normal;font-stretch:normal;letter-spacing:normal;word-spacing:normal;text-anchor:start;fill:none;fill-opacity:1;fill-rule:evenodd;stroke:#000000;stroke-linecap:butt;stroke-linejoin:miter;stroke-miterlimit:10.43299961;stroke-dasharray:none;stroke-dashoffset:0;stroke-opacity:1">
<path
   id="path26457"
   d="m 252.98,645.73 h 1.12 c -0.33,-1.47 -0.42,-1.89 -0.42,-2.56 0,-0.15 0,-0.42 0.08,-0.76 0.1,-0.43 0.21,-0.49 0.36,-0.49 0.2,0 0.41,0.18 0.41,0.37 0,0.06 0,0.09 -0.06,0.22 -0.29,0.72 -0.29,1.37 -0.29,1.64 0,0.53 0.07,1.07 0.18,1.58 h 1.14 c 0.13,0 0.49,0 0.49,0.34 0,0.24 -0.21,0.24 -0.4,0.24 h -3.34 c -0.22,0 -0.6,0 -1.04,-0.47 -0.35,-0.39 -0.61,-0.84 -0.61,-0.89 0,-0.01 0,-0.1 0.12,-0.1 0.08,0 0.1,0.04 0.16,0.12 0.49,0.76 1.07,0.76 1.27,0.76 h 0.56 c -0.31,-1.2 -0.85,-2.4 -1.27,-3.31 -0.08,-0.14 -0.08,-0.16 -0.08,-0.23 0,-0.19 0.16,-0.27 0.29,-0.27 0.3,0 0.38,0.28 0.5,0.64 0.14,0.46 0.14,0.48 0.27,0.98 z"
   inkscape:connector-curvature="0"
   style="fill:#000000;stroke-width:0" />
<path
   id="path26459"
   d="m 259.67,639.64 v 0.01 0 0.01 0 0 0.01 0 h -0.01 v 0.01 0 0.01 0 h -0.01 v 0.01 l -0.01,0.01 v 0 l -0.01,0.01 v 0.01 0 h -0.01 v 0.01 h -0.01 v 0.01 0 l -0.01,0.01 v 0 l -0.01,0.01 v 0 l -0.01,0.01 v 0 l -0.01,0.01 v 0 l -0.01,0.01 v 0 l -0.01,0.01 -0.01,0.01 v 0 l -0.01,0.01 -0.01,0.01 v 0.01 h -0.01 l -0.01,0.01 c -1.25,1.25 -1.57,3.13 -1.57,4.65 0,1.73 0.38,3.46 1.61,4.7 0.13,0.12 0.13,0.14 0.13,0.17 0,0.07 -0.04,0.1 -0.1,0.1 -0.1,0 -1,-0.68 -1.59,-1.94 -0.5,-1.09 -0.62,-2.2 -0.62,-3.03 0,-0.77 0.11,-1.98 0.65,-3.1 0.6,-1.22 1.46,-1.87 1.56,-1.87 0.06,0 0.1,0.03 0.1,0.1 z"
   inkscape:connector-curvature="0"
   style="fill:#000000;stroke-width:0" />
<path
   id="path26461"
   d="m 264.78,646.99 v 0.07 0.06 l -0.01,0.08 v 0.07 l -0.01,0.08 v 0.08 l -0.01,0.08 -0.01,0.08 -0.02,0.08 -0.01,0.09 -0.02,0.08 -0.02,0.09 -0.02,0.08 -0.03,0.08 -0.03,0.09 -0.03,0.08 -0.03,0.08 -0.04,0.07 -0.04,0.08 -0.04,0.07 -0.05,0.07 -0.05,0.06 -0.05,0.06 -0.06,0.05 -0.06,0.05 -0.03,0.03 -0.04,0.02 -0.03,0.02 -0.04,0.02 -0.03,0.01 -0.04,0.02 -0.04,0.01 -0.04,0.02 -0.04,0.01 h -0.04 l -0.05,0.01 -0.04,0.01 h -0.05 -0.05 l -0.01,-0.22 c 0.49,0 0.55,-0.63 0.55,-1.2 0,-0.49 -0.08,-0.99 -0.32,-1.98 h -2.08 c 0.17,0.64 0.37,1.43 0.77,2.14 0.27,0.49 0.64,1.04 1.08,1.04 l 0.01,0.22 c -1.38,0 -2.92,-2.8 -2.92,-5.08 0,-0.93 0.29,-2.03 1.2,-2.03 v 0.22 c -0.33,0 -0.54,0.28 -0.54,1.21 0,0.42 0.06,0.99 0.32,1.97 h 2.07 c -0.11,-0.46 -0.32,-1.31 -0.69,-2.02 -0.35,-0.68 -0.73,-1.16 -1.16,-1.16 v -0.22 c 1.41,0 2.92,2.85 2.92,5.07 z"
   inkscape:connector-curvature="0"
   style="fill:#000000;stroke-width:0" />
<path
   id="path26463"
   d="m 266.78,649.12 v 0.03 0.04 0.03 0.02 0.01 0.02 0.01 l -0.01,0.02 v 0.01 0.02 0.01 l -0.01,0.01 v 0.02 l -0.01,0.01 v 0.01 l -0.01,0.01 -0.01,0.01 v 0.01 l -0.01,0.01 -0.01,0.01 -0.01,0.01 h -0.01 l -0.01,0.01 v 0 h -0.01 -0.01 v 0.01 h -0.01 -0.01 -0.01 v 0 h -0.01 l -0.01,0.01 h -0.01 -0.01 -0.01 c -0.2,0 -0.2,-0.18 -0.2,-0.36 v -9.22 c 0,-0.18 0,-0.36 0.2,-0.36 0.2,0 0.2,0.18 0.2,0.36 z"
   inkscape:connector-curvature="0"
   style="fill:#000000;stroke-width:0" />
<path
   id="path26465"
   d="m 272.81,645.81 v 0.01 0 l 0.01,0.01 v 0.01 0.01 0.01 l 0.01,0.01 v 0.01 0.01 0.01 h 0.01 v 0.01 0.01 0.01 0 0.01 0.01 h 0.01 v 0.01 0 0.01 0 0.01 0.01 0.02 0.01 0 0.01 0 0.01 c 0,0.18 -0.14,0.27 -0.29,0.27 -0.1,0 -0.26,-0.06 -0.35,-0.21 -0.02,-0.05 -0.1,-0.36 -0.14,-0.54 -0.07,-0.26 -0.14,-0.52 -0.2,-0.79 l -0.45,-1.79 c -0.04,-0.15 -0.46,-0.84 -1.12,-0.84 -0.51,0 -0.62,0.43 -0.62,0.8 0,0.46 0.17,1.07 0.51,1.95 0.16,0.4 0.2,0.51 0.2,0.71 0,0.45 -0.32,0.82 -0.82,0.82 -0.95,0 -1.32,-1.44 -1.32,-1.53 0,-0.1 0.1,-0.1 0.12,-0.1 0.1,0 0.11,0.02 0.16,0.18 0.27,0.93 0.67,1.23 1.01,1.23 0.08,0 0.25,0 0.25,-0.32 0,-0.25 -0.1,-0.5 -0.17,-0.69 -0.4,-1.06 -0.58,-1.62 -0.58,-2.09 0,-0.88 0.63,-1.18 1.22,-1.18 0.39,0 0.73,0.17 1.01,0.44 -0.13,-0.51 -0.25,-1 -0.65,-1.52 -0.26,-0.34 -0.64,-0.63 -1.1,-0.63 -0.14,0 -0.59,0.03 -0.76,0.42 0.16,0 0.29,0 0.43,0.12 0.1,0.09 0.2,0.21 0.2,0.4 0,0.31 -0.27,0.35 -0.37,0.35 -0.23,0 -0.56,-0.16 -0.56,-0.65 0,-0.49 0.44,-0.86 1.06,-0.86 1.03,0 2.05,0.9 2.33,2.03 z"
   inkscape:connector-curvature="0"
   style="fill:#000000;stroke-width:0" />
<path
   id="path26467"
   d="m 276.56,642.38 v 0.07 0.07 l -0.01,0.07 -0.01,0.07 -0.02,0.06 -0.02,0.06 -0.02,0.06 -0.02,0.06 -0.03,0.05 -0.02,0.06 -0.03,0.05 -0.04,0.05 -0.03,0.04 -0.04,0.05 -0.04,0.04 -0.04,0.04 -0.05,0.04 -0.04,0.03 -0.05,0.04 -0.05,0.03 -0.05,0.03 -0.06,0.02 -0.05,0.03 -0.06,0.02 -0.05,0.02 -0.06,0.01 -0.06,0.02 -0.06,0.01 -0.06,0.01 h -0.07 l -0.06,0.01 h -0.06 l -0.01,-0.19 c 0.38,0 0.7,-0.26 0.7,-0.78 0,-0.16 -0.09,-0.85 -0.39,-1.34 -0.27,-0.41 -0.69,-0.63 -1.04,-0.63 v 0 c -0.35,0 -0.7,0.22 -0.7,0.77 0,0.29 0.14,0.97 0.41,1.36 0.3,0.43 0.71,0.62 1.02,0.62 l 0.01,0.19 c -1.04,0 -2.02,-0.97 -2.02,-1.92 0,-0.7 0.51,-1.22 1.27,-1.22 1,0 2.01,0.92 2.01,1.92 z"
   inkscape:connector-curvature="0"
   style="fill:#000000;stroke-width:0" />
<path
   id="path26469"
   d="m 278.63,645.15 v 0 0 0 0 0 0.01 0 0 0 0 0.01 0 l 0.01,0.01 v 0 0.01 0 0 0.01 0.01 0 l 0.01,0.01 v 0 0.01 0 0.01 0 0 0.01 0 0 0 0 0.01 0 0 0 0 0 0 0 0 c 0,0.04 -0.02,0.1 -0.11,0.1 -0.14,0 -0.72,-0.06 -0.89,-0.07 -0.06,-0.01 -0.16,-0.01 -0.16,-0.16 0,-0.1 0.1,-0.1 0.19,-0.1 0.33,0 0.33,-0.05 0.33,-0.1 0,-0.05 -0.07,-0.33 -0.11,-0.49 l -0.16,-0.64 c -0.06,-0.23 -0.45,-1.76 -0.46,-1.85 -0.04,-0.17 -0.04,-0.26 -0.04,-0.34 0,-0.7 0.45,-1.15 1.03,-1.15 0.87,0 1.81,0.95 1.81,1.98 0,0.81 -0.57,1.16 -1.05,1.16 l -0.02,-0.19 c 0.27,0 0.51,-0.21 0.51,-0.68 0,-0.28 -0.16,-0.99 -0.37,-1.4 -0.17,-0.34 -0.52,-0.67 -0.87,-0.67 v 0 c -0.35,0 -0.54,0.3 -0.54,0.71 0,0.26 0.06,0.49 0.26,1.28 0.04,0.13 0.04,0.14 0.17,0.3 0.27,0.3 0.58,0.46 0.84,0.46 l 0.02,0.19 c -0.37,0 -0.67,-0.2 -0.89,-0.38 z"
   inkscape:connector-curvature="0"
   style="fill:#000000;stroke-width:0" />
<path
   id="path26471"
   d="m 283.3,643.15 -0.02,-0.01 h -0.01 l -0.02,-0.01 h -0.02 l -0.01,-0.01 -0.02,-0.01 h -0.01 l -0.01,-0.01 -0.02,-0.01 -0.01,-0.01 -0.01,-0.01 -0.01,-0.01 -0.02,-0.01 -0.01,-0.01 -0.01,-0.01 -0.01,-0.01 -0.01,-0.01 V 643 l -0.01,-0.01 -0.01,-0.02 -0.01,-0.01 v -0.01 l -0.01,-0.01 v -0.02 l -0.01,-0.01 v -0.01 l -0.01,-0.01 v -0.02 -0.01 -0.01 -0.02 -0.01 c 0,-0.16 0.13,-0.22 0.23,-0.22 0.07,0 0.33,0.04 0.33,0.39 0,0.46 -0.5,0.61 -0.93,0.61 -1.09,0 -1.28,-0.8 -1.28,-1.02 0,-0.25 0.14,-0.42 0.24,-0.5 0.18,-0.14 0.31,-0.17 0.79,-0.25 0.15,-0.03 0.59,-0.11 0.59,-0.46 0,-0.12 -0.07,-0.39 -0.37,-0.56 -0.27,-0.15 -0.61,-0.15 -0.7,-0.15 -0.27,0 -0.67,0.06 -0.83,0.29 0.23,0.03 0.38,0.2 0.38,0.4 0,0.17 -0.13,0.25 -0.27,0.25 -0.21,0 -0.41,-0.16 -0.41,-0.46 0,-0.42 0.45,-0.68 1.13,-0.68 1.28,0 1.52,0.88 1.52,1.15 0,0.64 -0.7,0.77 -0.96,0.81 -0.07,0.02 -0.24,0.05 -0.28,0.06 -0.26,0.05 -0.39,0.19 -0.39,0.35 0,0.16 0.13,0.34 0.28,0.44 0.19,0.12 0.44,0.14 0.55,0.14 0.15,0 0.51,-0.03 0.67,-0.26 z"
   inkscape:connector-curvature="0"
   style="fill:#000000;stroke-width:0" />
<path
   id="path26473"
   d="m 287.42,644.51 v 0.07 0.08 0.08 0.08 l -0.01,0.17 -0.01,0.17 -0.02,0.19 -0.02,0.19 -0.03,0.19 -0.03,0.2 -0.04,0.2 -0.04,0.21 -0.06,0.21 -0.06,0.21 -0.07,0.21 -0.08,0.22 -0.04,0.1 -0.05,0.11 -0.04,0.1 -0.05,0.11 c -0.6,1.22 -1.46,1.87 -1.56,1.87 -0.06,0 -0.1,-0.04 -0.1,-0.1 0,-0.03 0,-0.05 0.19,-0.23 0.98,-0.98 1.55,-2.56 1.55,-4.64 0,-1.7 -0.37,-3.45 -1.61,-4.7 -0.13,-0.12 -0.13,-0.14 -0.13,-0.17 0,-0.06 0.04,-0.1 0.1,-0.1 0.1,0 1,0.68 1.59,1.94 0.5,1.09 0.62,2.2 0.62,3.03 z"
   inkscape:connector-curvature="0"
   style="fill:#000000;stroke-width:0" />
<path
   id="path26475"
   d="m 298.04,645.28 h 0.03 0.03 0.02 0.02 0.01 0.02 0.01 0.02 l 0.01,0.01 h 0.01 0.02 l 0.01,0.01 h 0.01 0.02 l 0.01,0.01 0.01,0.01 h 0.01 l 0.01,0.01 0.01,0.01 0.01,0.01 0.01,0.01 v 0 0.01 l 0.01,0.01 v 0 0.01 0 l 0.01,0.01 v 0.01 0.01 0 0.01 0.01 l 0.01,0.01 v 0.01 0 0.01 c 0,0.2 -0.19,0.2 -0.33,0.2 h -5.97 c -0.15,0 -0.34,0 -0.34,-0.2 0,-0.19 0.19,-0.19 0.34,-0.19 z"
   inkscape:connector-curvature="0"
   style="fill:#000000;stroke-width:0" />
<path
   id="path26477"
   d="m 298.05,643.35 h 0.02 0.03 0.03 0.01 0.02 0.01 0.02 l 0.01,0.01 h 0.01 0.02 0.01 l 0.01,0.01 h 0.02 l 0.01,0.01 h 0.01 l 0.01,0.01 0.01,0.01 h 0.01 l 0.01,0.01 0.01,0.01 v 0.01 h 0.01 v 0.01 0 l 0.01,0.01 v 0 0.01 0.01 h 0.01 v 0.01 0.01 0.01 0 0.01 l 0.01,0.01 v 0.01 0.01 0.01 c 0,0.2 -0.19,0.2 -0.34,0.2 h -5.96 c -0.15,0 -0.34,0 -0.34,-0.2 0,-0.2 0.19,-0.2 0.34,-0.2 z"
   inkscape:connector-curvature="0"
   style="fill:#000000;stroke-width:0" />
<path
   id="path26479"
   d="m 305.54,652.47 h 1.13 c -0.33,-1.47 -0.42,-1.89 -0.42,-2.56 0,-0.15 0,-0.42 0.08,-0.76 0.1,-0.43 0.21,-0.49 0.35,-0.49 0.21,0 0.41,0.18 0.41,0.37 0,0.06 0,0.08 -0.06,0.22 -0.29,0.72 -0.29,1.36 -0.29,1.64 0,0.53 0.08,1.07 0.18,1.58 h 1.14 c 0.13,0 0.49,0 0.49,0.34 0,0.24 -0.21,0.24 -0.4,0.24 h -3.34 c -0.22,0 -0.6,0 -1.04,-0.47 -0.35,-0.39 -0.6,-0.84 -0.6,-0.89 0,-0.01 0,-0.1 0.12,-0.1 0.07,0 0.1,0.04 0.15,0.12 0.49,0.76 1.07,0.76 1.27,0.76 h 0.57 c -0.32,-1.2 -0.86,-2.4 -1.28,-3.31 -0.08,-0.14 -0.08,-0.17 -0.08,-0.23 0,-0.19 0.16,-0.27 0.29,-0.27 0.3,0 0.38,0.28 0.5,0.64 0.14,0.46 0.14,0.48 0.27,0.98 z"
   inkscape:connector-curvature="0"
   style="fill:#ff4081;fill-opacity:1;stroke-width:0" />
<path
   id="path26481"
   d="m 312.23,646.38 v 0.01 0 0.01 0 0 0.01 0 0 0.01 0 h -0.01 v 0.01 0 l -0.01,0.01 v 0.01 h -0.01 v 0.01 l -0.01,0.01 v 0 0 l -0.01,0.01 v 0 l -0.01,0.01 v 0 0.01 h -0.01 v 0 l -0.01,0.01 v 0.01 h -0.01 v 0.01 h -0.01 v 0.01 h -0.01 l -0.01,0.01 v 0.01 h -0.01 l -0.01,0.01 v 0.01 l -0.01,0.01 h -0.01 l -0.01,0.01 c -1.24,1.25 -1.56,3.13 -1.56,4.65 0,1.73 0.38,3.46 1.6,4.7 0.13,0.12 0.13,0.14 0.13,0.17 0,0.07 -0.04,0.1 -0.1,0.1 -0.1,0 -0.99,-0.68 -1.58,-1.94 -0.51,-1.09 -0.63,-2.19 -0.63,-3.03 0,-0.77 0.11,-1.98 0.66,-3.1 0.6,-1.22 1.45,-1.87 1.55,-1.87 0.06,0 0.1,0.03 0.1,0.1 z"
   inkscape:connector-curvature="0"
   style="fill:#ff4081;fill-opacity:1;stroke-width:0" />
<path
   id="path26483"
   d="m 317.65,652.55 v 0.01 h 0.01 v 0.01 0.01 0.01 l 0.01,0.01 v 0.01 0.01 0.01 l 0.01,0.01 v 0 0.01 0.01 0.01 0 l 0.01,0.01 v 0.01 0 0.01 0 0.01 0 0.01 0.01 0.02 0.01 0 0.01 0 0.01 c 0,0.18 -0.14,0.27 -0.29,0.27 -0.1,0 -0.26,-0.06 -0.35,-0.21 -0.01,-0.05 -0.1,-0.36 -0.13,-0.54 -0.07,-0.26 -0.14,-0.52 -0.2,-0.79 l -0.45,-1.79 c -0.04,-0.15 -0.47,-0.84 -1.13,-0.84 -0.51,0 -0.62,0.43 -0.62,0.8 0,0.46 0.17,1.07 0.51,1.95 0.16,0.4 0.2,0.51 0.2,0.71 0,0.45 -0.32,0.82 -0.82,0.82 -0.95,0 -1.31,-1.44 -1.31,-1.53 0,-0.1 0.1,-0.1 0.12,-0.1 0.1,0 0.11,0.02 0.16,0.18 0.26,0.93 0.66,1.23 1,1.23 0.08,0 0.25,0 0.25,-0.32 0,-0.25 -0.1,-0.51 -0.17,-0.69 -0.4,-1.06 -0.58,-1.62 -0.58,-2.09 0,-0.88 0.63,-1.18 1.22,-1.18 0.39,0 0.73,0.17 1.01,0.44 -0.13,-0.51 -0.25,-1 -0.65,-1.52 -0.26,-0.34 -0.64,-0.63 -1.1,-0.63 -0.14,0 -0.59,0.03 -0.75,0.42 0.15,0 0.28,0 0.42,0.12 0.1,0.09 0.2,0.21 0.2,0.4 0,0.31 -0.27,0.35 -0.37,0.35 -0.22,0 -0.55,-0.16 -0.55,-0.65 0,-0.49 0.43,-0.86 1.05,-0.86 1.03,0 2.06,0.9 2.34,2.03 z"
   inkscape:connector-curvature="0"
   style="fill:#ff4081;fill-opacity:1;stroke-width:0" />
<path
   id="path26485"
   d="m 321.4,649.12 v 0.07 0.07 l -0.01,0.07 -0.01,0.07 -0.02,0.06 -0.01,0.06 -0.02,0.06 -0.03,0.06 -0.02,0.05 -0.03,0.06 -0.03,0.05 -0.03,0.05 -0.04,0.04 -0.04,0.05 -0.04,0.04 -0.04,0.04 -0.05,0.04 -0.04,0.03 -0.05,0.04 -0.05,0.03 -0.05,0.03 -0.05,0.02 -0.06,0.03 -0.05,0.02 -0.06,0.02 -0.06,0.01 -0.06,0.02 -0.06,0.01 -0.06,0.01 h -0.06 l -0.07,0.01 h -0.06 l -0.01,-0.19 c 0.38,0 0.7,-0.26 0.7,-0.78 0,-0.16 -0.08,-0.85 -0.39,-1.34 -0.27,-0.41 -0.68,-0.63 -1.04,-0.63 v 0 c -0.35,0 -0.69,0.22 -0.69,0.77 0,0.29 0.13,0.97 0.4,1.36 0.3,0.43 0.71,0.62 1.02,0.62 l 0.01,0.19 c -1.04,0 -2.01,-0.97 -2.01,-1.92 0,-0.7 0.51,-1.22 1.27,-1.22 1,0 2,0.92 2,1.92 z"
   inkscape:connector-curvature="0"
   style="fill:#ff4081;fill-opacity:1;stroke-width:0" />
<path
   id="path26487"
   d="m 323.47,651.89 v 0 0 0 0 0 0.01 0 0 0 h 0.01 v 0.01 0 0.01 0 0.01 0 0 0.01 l 0.01,0.01 v 0 0.01 0 0.01 0 0.01 0 0 l 0.01,0.01 v 0 0 0 0 0.01 0 0 0 0 0 0 0 0 c 0,0.04 -0.03,0.1 -0.11,0.1 -0.14,0 -0.72,-0.06 -0.9,-0.07 -0.05,-0.01 -0.15,-0.01 -0.15,-0.16 0,-0.1 0.1,-0.1 0.18,-0.1 0.34,0 0.34,-0.05 0.34,-0.1 0,-0.05 -0.07,-0.33 -0.12,-0.49 l -0.16,-0.64 c -0.06,-0.24 -0.44,-1.76 -0.46,-1.85 -0.03,-0.16 -0.03,-0.26 -0.03,-0.34 0,-0.7 0.44,-1.15 1.02,-1.15 0.88,0 1.81,0.95 1.81,1.98 0,0.81 -0.57,1.16 -1.05,1.16 l -0.02,-0.19 c 0.27,0 0.51,-0.21 0.51,-0.68 0,-0.29 -0.16,-0.99 -0.37,-1.4 -0.16,-0.34 -0.51,-0.67 -0.87,-0.67 v 0 c -0.34,0 -0.54,0.3 -0.54,0.71 0,0.25 0.06,0.49 0.26,1.28 0.04,0.13 0.04,0.14 0.18,0.3 0.26,0.3 0.58,0.46 0.83,0.46 l 0.02,0.19 c -0.36,0 -0.67,-0.2 -0.88,-0.38 z"
   inkscape:connector-curvature="0"
   style="fill:#ff4081;fill-opacity:1;stroke-width:0" />
<path
   id="path26489"
   d="m 328.14,649.89 -0.01,-0.01 h -0.02 l -0.02,-0.01 h -0.01 l -0.02,-0.01 -0.01,-0.01 h -0.02 l -0.01,-0.01 -0.01,-0.01 -0.02,-0.01 -0.01,-0.01 -0.01,-0.01 -0.01,-0.01 -0.01,-0.01 -0.01,-0.01 -0.01,-0.01 -0.01,-0.01 -0.01,-0.01 -0.01,-0.01 -0.01,-0.02 v -0.01 l -0.01,-0.01 -0.01,-0.01 v -0.02 l -0.01,-0.01 v -0.01 -0.01 l -0.01,-0.02 v -0.01 -0.01 -0.02 -0.01 c 0,-0.16 0.14,-0.22 0.23,-0.22 0.07,0 0.33,0.04 0.33,0.39 0,0.46 -0.5,0.61 -0.93,0.61 -1.09,0 -1.28,-0.8 -1.28,-1.02 0,-0.25 0.15,-0.42 0.24,-0.5 0.18,-0.14 0.31,-0.17 0.79,-0.25 0.15,-0.03 0.6,-0.11 0.6,-0.46 0,-0.12 -0.08,-0.39 -0.37,-0.56 -0.28,-0.15 -0.62,-0.15 -0.7,-0.15 -0.28,0 -0.68,0.06 -0.84,0.29 0.23,0.03 0.38,0.2 0.38,0.4 0,0.17 -0.12,0.25 -0.27,0.25 -0.2,0 -0.4,-0.16 -0.4,-0.46 0,-0.42 0.44,-0.68 1.12,-0.68 1.29,0 1.52,0.88 1.52,1.15 0,0.64 -0.7,0.77 -0.96,0.81 -0.06,0.02 -0.24,0.05 -0.28,0.06 -0.26,0.05 -0.39,0.19 -0.39,0.35 0,0.16 0.13,0.34 0.28,0.44 0.19,0.12 0.44,0.14 0.56,0.14 0.14,0 0.51,-0.03 0.66,-0.26 z"
   inkscape:connector-curvature="0"
   style="fill:#ff4081;fill-opacity:1;stroke-width:0" />
<path
   id="path26491"
   d="m 330.97,655.86 v 0.03 0.04 0.03 0.02 0.01 0.02 0.01 l -0.01,0.02 v 0.01 0.02 0.01 l -0.01,0.01 v 0.02 l -0.01,0.01 v 0.01 l -0.01,0.01 -0.01,0.01 v 0.01 l -0.01,0.01 -0.01,0.01 -0.01,0.01 h -0.01 l -0.01,0.01 h -0.01 v 0 h -0.01 v 0.01 h -0.01 -0.01 -0.01 v 0 h -0.01 l -0.01,0.01 h -0.01 -0.01 -0.01 c -0.2,0 -0.2,-0.18 -0.2,-0.36 v -9.22 c 0,-0.18 0,-0.36 0.2,-0.36 0.2,0 0.2,0.18 0.2,0.36 z"
   inkscape:connector-curvature="0"
   style="fill:#ff4081;fill-opacity:1;stroke-width:0" />
<path
   id="path26493"
   d="m 336.69,653.73 v 0.07 0.06 l -0.01,0.08 v 0.07 l -0.01,0.08 v 0.08 l -0.01,0.08 -0.01,0.08 -0.02,0.08 -0.01,0.09 -0.02,0.08 -0.02,0.09 -0.02,0.08 -0.03,0.08 -0.03,0.09 -0.03,0.08 -0.03,0.08 -0.04,0.07 -0.04,0.08 -0.04,0.07 -0.05,0.07 -0.05,0.06 -0.05,0.06 -0.06,0.05 -0.06,0.05 -0.03,0.03 -0.04,0.02 -0.03,0.02 -0.04,0.02 -0.03,0.01 -0.04,0.02 -0.04,0.01 -0.04,0.02 -0.04,0.01 h -0.04 l -0.05,0.01 -0.04,0.01 h -0.05 -0.05 l -0.01,-0.22 c 0.49,0 0.55,-0.63 0.55,-1.2 0,-0.49 -0.08,-0.99 -0.32,-1.98 h -2.08 c 0.17,0.64 0.37,1.43 0.77,2.14 0.27,0.48 0.64,1.04 1.08,1.04 l 0.01,0.22 c -1.38,0 -2.92,-2.8 -2.92,-5.08 0,-0.93 0.29,-2.03 1.2,-2.03 v 0.22 c -0.33,0 -0.54,0.28 -0.54,1.21 0,0.42 0.06,0.99 0.32,1.96 h 2.07 c -0.11,-0.45 -0.32,-1.3 -0.7,-2.01 -0.34,-0.68 -0.72,-1.16 -1.15,-1.16 v -0.22 c 1.4,0 2.92,2.85 2.92,5.07 z"
   inkscape:connector-curvature="0"
   style="fill:#ff4081;fill-opacity:1;stroke-width:0" />
<path
   id="path26495"
   d="m 339.99,651.25 v 0.07 0.08 0.08 l -0.01,0.08 v 0.17 l -0.02,0.17 -0.01,0.19 -0.02,0.19 -0.03,0.19 -0.03,0.2 -0.04,0.2 -0.05,0.21 -0.05,0.21 -0.07,0.21 -0.06,0.21 -0.08,0.22 -0.05,0.1 -0.04,0.11 -0.05,0.1 -0.05,0.11 c -0.6,1.22 -1.45,1.87 -1.56,1.87 -0.06,0 -0.1,-0.04 -0.1,-0.1 0,-0.03 0,-0.05 0.19,-0.23 0.98,-0.98 1.55,-2.56 1.55,-4.64 0,-1.7 -0.37,-3.45 -1.61,-4.7 -0.13,-0.12 -0.13,-0.14 -0.13,-0.17 0,-0.06 0.04,-0.1 0.1,-0.1 0.11,0 1,0.68 1.59,1.94 0.51,1.09 0.63,2.2 0.63,3.03 z"
   inkscape:connector-curvature="0"
   style="fill:#ff4081;fill-opacity:1;stroke-width:0" />
<path
   id="path26497"
   d="m 343.62,652.47 h 1.13 c -0.33,-1.47 -0.42,-1.89 -0.42,-2.56 0,-0.15 0,-0.42 0.08,-0.76 0.1,-0.43 0.21,-0.49 0.36,-0.49 0.2,0 0.41,0.18 0.41,0.37 0,0.06 0,0.08 -0.06,0.22 -0.29,0.72 -0.29,1.36 -0.29,1.64 0,0.53 0.07,1.07 0.18,1.58 h 1.14 c 0.13,0 0.49,0 0.49,0.34 0,0.24 -0.21,0.24 -0.4,0.24 h -3.34 c -0.22,0 -0.6,0 -1.04,-0.47 -0.35,-0.39 -0.61,-0.84 -0.61,-0.89 0,-0.01 0,-0.1 0.12,-0.1 0.08,0 0.1,0.04 0.16,0.12 0.49,0.76 1.07,0.76 1.27,0.76 h 0.56 c -0.31,-1.2 -0.85,-2.4 -1.27,-3.31 -0.08,-0.14 -0.08,-0.17 -0.08,-0.23 0,-0.19 0.16,-0.27 0.29,-0.27 0.3,0 0.38,0.28 0.5,0.64 0.14,0.46 0.14,0.48 0.27,0.98 z"
   inkscape:connector-curvature="0"
   style="fill:#000000;stroke-width:0" />
<path
   id="path26499"
   d="m 350.32,646.38 v 0.01 0 0.01 0 0 0.01 0 h -0.01 v 0.01 0 0 l -0.01,0.01 v 0 0.01 l -0.01,0.01 v 0 l -0.01,0.01 v 0.01 h -0.01 v 0 0.01 h -0.01 v 0.01 0 l -0.01,0.01 v 0 h -0.01 v 0.01 l -0.01,0.01 v 0 l -0.01,0.01 v 0 l -0.01,0.01 v 0 l -0.01,0.01 -0.01,0.01 v 0 l -0.01,0.01 -0.01,0.01 -0.01,0.01 v 0 l -0.01,0.01 c -1.25,1.25 -1.57,3.13 -1.57,4.65 0,1.73 0.38,3.46 1.61,4.7 0.13,0.12 0.13,0.14 0.13,0.17 0,0.07 -0.04,0.1 -0.1,0.1 -0.1,0 -1,-0.68 -1.59,-1.94 -0.5,-1.09 -0.62,-2.19 -0.62,-3.03 0,-0.77 0.1,-1.98 0.65,-3.1 0.6,-1.22 1.46,-1.87 1.56,-1.87 0.06,0 0.1,0.03 0.1,0.1 z"
   inkscape:connector-curvature="0"
   style="fill:#000000;stroke-width:0" />
<path
   id="path26501"
   d="m 355.43,653.73 v 0.07 0.06 l -0.01,0.08 v 0.07 l -0.01,0.08 v 0.08 l -0.01,0.08 -0.01,0.08 -0.02,0.08 -0.01,0.09 -0.02,0.08 -0.02,0.09 -0.02,0.08 -0.03,0.08 -0.03,0.09 -0.03,0.08 -0.03,0.08 -0.04,0.07 -0.04,0.08 -0.04,0.07 -0.05,0.07 -0.05,0.06 -0.05,0.06 -0.06,0.05 -0.06,0.05 -0.04,0.03 -0.03,0.02 -0.03,0.02 -0.04,0.02 -0.04,0.01 -0.03,0.02 -0.04,0.01 -0.04,0.02 -0.04,0.01 h -0.05 l -0.04,0.01 -0.04,0.01 h -0.05 -0.05 l -0.01,-0.22 c 0.49,0 0.55,-0.63 0.55,-1.2 0,-0.49 -0.08,-0.99 -0.32,-1.98 h -2.08 c 0.17,0.64 0.37,1.43 0.77,2.14 0.26,0.48 0.63,1.04 1.08,1.04 l 0.01,0.22 c -1.38,0 -2.92,-2.8 -2.92,-5.08 0,-0.93 0.29,-2.03 1.2,-2.03 v 0.22 c -0.33,0 -0.54,0.28 -0.54,1.21 0,0.42 0.06,0.99 0.32,1.96 h 2.07 c -0.11,-0.45 -0.32,-1.3 -0.7,-2.01 -0.34,-0.68 -0.72,-1.16 -1.15,-1.16 v -0.22 c 1.4,0 2.92,2.85 2.92,5.07 z"
   inkscape:connector-curvature="0"
   style="fill:#000000;stroke-width:0" />
<path
   id="path26503"
   d="m 358.73,651.25 v 0.07 0.08 l -0.01,0.08 v 0.08 l -0.01,0.17 -0.01,0.17 -0.01,0.19 -0.03,0.19 -0.02,0.19 -0.04,0.2 -0.03,0.2 -0.05,0.21 -0.05,0.21 -0.07,0.21 -0.07,0.21 -0.07,0.22 -0.05,0.1 -0.04,0.11 -0.05,0.1 -0.05,0.11 c -0.6,1.22 -1.46,1.87 -1.56,1.87 -0.06,0 -0.1,-0.04 -0.1,-0.1 0,-0.03 0,-0.05 0.19,-0.23 0.98,-0.98 1.55,-2.56 1.55,-4.64 0,-1.7 -0.37,-3.45 -1.61,-4.7 -0.13,-0.12 -0.13,-0.14 -0.13,-0.17 0,-0.06 0.04,-0.1 0.1,-0.1 0.1,0 1,0.68 1.59,1.94 0.51,1.09 0.63,2.2 0.63,3.03 z"
   inkscape:connector-curvature="0"
   style="fill:#000000;stroke-width:0" />
<line
   id="line26505"
   y2="644.52002"
   x2="359.72"
   y1="644.52002"
   x1="302.89999"
   style="stroke-width:0.398" />
<path
   id="path26507"
   d="m 318.77,638.9 h 1.12 c -0.32,-1.47 -0.41,-1.9 -0.41,-2.56 0,-0.15 0,-0.42 0.08,-0.76 0.1,-0.44 0.21,-0.5 0.36,-0.5 0.19,0 0.4,0.18 0.4,0.38 0,0.06 0,0.08 -0.06,0.22 -0.28,0.72 -0.28,1.36 -0.28,1.64 0,0.52 0.07,1.06 0.17,1.58 h 1.14 c 0.13,0 0.49,0 0.49,0.34 0,0.23 -0.21,0.23 -0.4,0.23 h -3.34 c -0.22,0 -0.6,0 -1.04,-0.46 -0.35,-0.39 -0.61,-0.85 -0.61,-0.9 0,-0.01 0,-0.1 0.13,-0.1 0.08,0 0.09,0.04 0.15,0.12 0.49,0.77 1.07,0.77 1.27,0.77 h 0.57 c -0.32,-1.2 -0.86,-2.41 -1.28,-3.31 -0.08,-0.15 -0.08,-0.17 -0.08,-0.24 0,-0.19 0.16,-0.27 0.29,-0.27 0.3,0 0.38,0.28 0.5,0.65 0.14,0.46 0.14,0.48 0.27,0.97 z"
   inkscape:connector-curvature="0"
   style="fill:#000000;stroke-width:0" />
<path
   id="path26509"
   d="m 325.46,632.81 v 0 0.01 0 0.01 0 0 0.01 0 0 0.01 h -0.01 v 0.01 0 l -0.01,0.01 v 0 l -0.01,0.01 v 0 l -0.01,0.01 v 0.01 0 h -0.01 v 0.01 h -0.01 v 0.01 0 l -0.01,0.01 v 0 l -0.01,0.01 v 0 l -0.01,0.01 v 0 l -0.01,0.01 v 0 l -0.01,0.01 -0.01,0.01 v 0 l -0.01,0.01 -0.01,0.01 v 0 l -0.01,0.01 -0.01,0.01 -0.01,0.01 c -1.24,1.25 -1.56,3.13 -1.56,4.65 0,1.73 0.38,3.45 1.6,4.7 0.13,0.11 0.13,0.13 0.13,0.16 0,0.07 -0.04,0.1 -0.1,0.1 -0.1,0 -0.99,-0.67 -1.58,-1.93 -0.51,-1.1 -0.63,-2.2 -0.63,-3.03 0,-0.78 0.11,-1.98 0.66,-3.1 0.6,-1.23 1.45,-1.87 1.55,-1.87 0.06,0 0.1,0.03 0.1,0.1 z"
   inkscape:connector-curvature="0"
   style="fill:#000000;stroke-width:0" />
<path
   id="path26511"
   d="m 330.88,638.98 v 0 l 0.01,0.01 v 0.01 0 0.01 l 0.01,0.01 v 0.02 0 0.01 l 0.01,0.01 v 0.01 0.01 0.01 0 0.01 l 0.01,0.01 v 0 0.01 0 0.01 0 0.01 0.01 0.01 0.01 0.01 0.01 0 0.01 0.01 c 0,0.18 -0.14,0.26 -0.29,0.26 -0.1,0 -0.25,-0.06 -0.34,-0.2 -0.02,-0.05 -0.11,-0.36 -0.15,-0.54 -0.06,-0.26 -0.13,-0.53 -0.19,-0.8 l -0.45,-1.78 c -0.04,-0.15 -0.47,-0.85 -1.13,-0.85 -0.51,0 -0.62,0.44 -0.62,0.81 0,0.45 0.17,1.07 0.51,1.94 0.16,0.41 0.2,0.52 0.2,0.72 0,0.45 -0.32,0.81 -0.82,0.81 -0.94,0 -1.31,-1.44 -1.31,-1.53 0,-0.09 0.1,-0.09 0.12,-0.09 0.1,0 0.11,0.01 0.16,0.17 0.27,0.94 0.66,1.23 1,1.23 0.08,0 0.25,0 0.25,-0.31 0,-0.25 -0.1,-0.51 -0.17,-0.7 -0.4,-1.05 -0.58,-1.62 -0.58,-2.08 0,-0.89 0.63,-1.19 1.22,-1.19 0.39,0 0.73,0.17 1.01,0.45 -0.13,-0.52 -0.25,-1 -0.65,-1.53 -0.26,-0.34 -0.64,-0.62 -1.1,-0.62 -0.14,0 -0.59,0.03 -0.76,0.41 0.16,0 0.29,0 0.43,0.12 0.1,0.09 0.2,0.22 0.2,0.41 0,0.31 -0.27,0.35 -0.37,0.35 -0.23,0 -0.55,-0.16 -0.55,-0.65 0,-0.5 0.43,-0.86 1.05,-0.86 1.03,0 2.06,0.9 2.34,2.02 z"
   inkscape:connector-curvature="0"
   style="fill:#000000;stroke-width:0" />
<path
   id="path26513"
   d="m 334.63,635.55 v 0.07 0.07 l -0.01,0.07 -0.01,0.06 -0.02,0.07 -0.01,0.06 -0.02,0.06 -0.03,0.05 -0.02,0.06 -0.03,0.05 -0.03,0.05 -0.04,0.05 -0.03,0.05 -0.04,0.04 -0.04,0.05 -0.04,0.04 -0.05,0.03 -0.04,0.04 -0.05,0.03 -0.05,0.03 -0.05,0.03 -0.05,0.03 -0.06,0.02 -0.06,0.02 -0.05,0.02 -0.06,0.02 -0.06,0.01 -0.06,0.02 h -0.06 l -0.06,0.01 h -0.07 l -0.06,0.01 c -1.04,0 -2.02,-0.97 -2.02,-1.92 0,-0.7 0.51,-1.22 1.28,-1.22 v 0.19 c -0.35,0 -0.7,0.23 -0.7,0.78 0,0.28 0.14,0.96 0.41,1.36 0.3,0.43 0.71,0.61 1.02,0.61 0.38,0 0.7,-0.26 0.7,-0.77 0,-0.17 -0.08,-0.86 -0.39,-1.34 -0.27,-0.41 -0.69,-0.64 -1.04,-0.64 v 0 -0.19 c 1,0 2,0.92 2,1.92 z"
   inkscape:connector-curvature="0"
   style="fill:#000000;stroke-width:0" />
<path
   id="path26515"
   d="m 336.7,638.32 v 0 0 0 0 0 0 0 0 0.01 0 h 0.01 v 0.01 0 0.01 0 0.01 0 0.01 h 0.01 v 0.01 0 0.01 0 0.01 0 0.01 0 0 l 0.01,0.01 v 0 0 0 0 0 0 0 0 0.01 0 0 0 c 0,0.03 -0.03,0.1 -0.12,0.1 -0.13,0 -0.72,-0.06 -0.89,-0.07 -0.05,-0.01 -0.15,-0.02 -0.15,-0.17 0,-0.09 0.1,-0.09 0.18,-0.09 0.33,0 0.33,-0.05 0.33,-0.11 0,-0.05 -0.07,-0.32 -0.11,-0.48 l -0.16,-0.64 c -0.06,-0.24 -0.45,-1.76 -0.46,-1.85 -0.03,-0.17 -0.03,-0.26 -0.03,-0.34 0,-0.71 0.44,-1.15 1.02,-1.15 l 0.01,0.19 c -0.34,0 -0.54,0.3 -0.54,0.71 0,0.26 0.06,0.5 0.26,1.28 0.04,0.14 0.04,0.15 0.17,0.3 0.27,0.31 0.59,0.46 0.84,0.46 0.27,0 0.51,-0.2 0.51,-0.67 0,-0.29 -0.16,-1 -0.37,-1.4 -0.16,-0.34 -0.51,-0.68 -0.87,-0.68 v 0 l -0.01,-0.19 c 0.88,0 1.81,0.95 1.81,1.97 0,0.82 -0.57,1.17 -1.05,1.17 -0.37,0 -0.67,-0.21 -0.88,-0.39 z"
   inkscape:connector-curvature="0"
   style="fill:#000000;stroke-width:0" />
<path
   id="path26517"
   d="m 341.37,636.31 h -0.02 l -0.01,-0.01 h -0.02 l -0.01,-0.01 h -0.02 l -0.01,-0.01 -0.02,-0.01 -0.01,-0.01 h -0.02 l -0.01,-0.01 -0.01,-0.01 -0.01,-0.01 -0.01,-0.01 -0.01,-0.01 -0.01,-0.01 -0.01,-0.01 -0.01,-0.01 -0.01,-0.02 -0.01,-0.01 -0.01,-0.01 -0.01,-0.01 v -0.01 l -0.01,-0.02 v -0.01 l -0.01,-0.01 v -0.01 -0.02 l -0.01,-0.01 v -0.01 -0.02 -0.01 -0.01 c 0,-0.16 0.14,-0.23 0.23,-0.23 0.07,0 0.33,0.05 0.33,0.4 0,0.45 -0.5,0.61 -0.93,0.61 -1.09,0 -1.28,-0.8 -1.28,-1.02 0,-0.26 0.14,-0.42 0.24,-0.51 0.18,-0.14 0.31,-0.16 0.79,-0.25 0.15,-0.02 0.6,-0.11 0.6,-0.46 0,-0.12 -0.08,-0.38 -0.38,-0.55 -0.27,-0.16 -0.61,-0.16 -0.69,-0.16 -0.28,0 -0.68,0.07 -0.84,0.3 0.23,0.02 0.38,0.2 0.38,0.39 0,0.18 -0.12,0.26 -0.27,0.26 -0.2,0 -0.41,-0.16 -0.41,-0.47 0,-0.41 0.45,-0.67 1.13,-0.67 1.29,0 1.52,0.88 1.52,1.15 0,0.64 -0.7,0.76 -0.96,0.81 -0.06,0.01 -0.24,0.04 -0.28,0.06 -0.26,0.05 -0.39,0.19 -0.39,0.34 0,0.16 0.13,0.35 0.28,0.45 0.19,0.12 0.44,0.13 0.56,0.13 0.14,0 0.51,-0.02 0.66,-0.26 z"
   inkscape:connector-curvature="0"
   style="fill:#000000;stroke-width:0" />
<path
   id="path26519"
   d="m 345.5,637.68 v 0.07 0.08 l -0.01,0.07 v 0.09 l -0.01,0.16 -0.01,0.18 -0.01,0.18 -0.03,0.19 -0.02,0.2 -0.04,0.2 -0.03,0.2 -0.05,0.21 -0.05,0.21 -0.07,0.21 -0.07,0.21 -0.07,0.21 -0.05,0.11 -0.04,0.1 -0.05,0.11 -0.05,0.11 c -0.6,1.22 -1.46,1.86 -1.56,1.86 -0.06,0 -0.1,-0.04 -0.1,-0.1 0,-0.03 0,-0.05 0.19,-0.22 0.98,-0.99 1.55,-2.57 1.55,-4.64 0,-1.7 -0.37,-3.45 -1.61,-4.7 -0.13,-0.12 -0.13,-0.14 -0.13,-0.17 0,-0.06 0.04,-0.1 0.1,-0.1 0.1,0 1,0.68 1.59,1.94 0.51,1.09 0.63,2.19 0.63,3.03 z"
   inkscape:connector-curvature="0"
   style="fill:#000000;stroke-width:0" />
</g>    <text
       xml:space="preserve"
       style="font-style:normal;font-variant:normal;font-weight:normal;font-stretch:normal;font-size:4.23333311px;line-height:1.25;font-family:Verdana;-inkscape-font-specification:Verdana;letter-spacing:0px;word-spacing:0px;fill:#ff4081;fill-opacity:1;stroke:none;stroke-width:0.26458332"
       x="90.507095"
       y="45.633007"
       id="text82"><tspan
         sodipodi:role="line"
         id="tspan80"
         x="90.507095"
         y="45.633007"
         style="fill:#ff4081;fill-opacity:1;stroke-width:0.26458332">likelihood</tspan></text>
    <text
       xml:space="preserve"
       style="font-style:normal;font-variant:normal;font-weight:normal;font-stretch:normal;font-size:4.23333311px;line-height:1.25;font-family:Verdana;-inkscape-font-specification:Verdana;letter-spacing:0px;word-spacing:0px;fill:#000000;fill-opacity:1;stroke:none;stroke-width:0.26458332"
       x="23.047056"
       y="54.127499"
       id="text86"><tspan
         sodipodi:role="line"
         id="tspan84"
         x="23.047056"
         y="54.127499"
         style="stroke-width:0.26458332">posterior</tspan></text>
    <text
       xml:space="preserve"
       style="font-style:normal;font-variant:normal;font-weight:normal;font-stretch:normal;font-size:4.23333311px;line-height:1.25;font-family:Verdana;-inkscape-font-specification:Verdana;letter-spacing:0px;word-spacing:0px;fill:#000000;fill-opacity:1;stroke:none;stroke-width:0.26458332"
       x="129.88762"
       y="59.664661"
       id="text90"><tspan
         sodipodi:role="line"
         id="tspan88"
         x="129.88762"
         y="59.664661"
         style="stroke-width:0.26458332">prior</tspan></text>
    <text
       xml:space="preserve"
       style="font-style:normal;font-variant:normal;font-weight:normal;font-stretch:normal;font-size:4.23333311px;line-height:1.25;font-family:Verdana;-inkscape-font-specification:Verdana;letter-spacing:0px;word-spacing:0px;fill:#000000;fill-opacity:1;stroke:none;stroke-width:0.26458332"
       x="73.098221"
       y="80.645309"
       id="text94"><tspan
         sodipodi:role="line"
         id="tspan92"
         x="73.098221"
         y="80.645309"
         style="stroke-width:0.26458332">evidence</tspan></text>
    <path
       style="fill:none;stroke:#000000;stroke-width:0.26499999;stroke-linecap:butt;stroke-linejoin:miter;stroke-miterlimit:4;stroke-dasharray:none;stroke-opacity:1;marker-end:url(#Arrow2Lend)"
       d="m 42.676498,54.45012 8.90652,4.91386"
       id="path96"
       inkscape:connector-curvature="0"
       sodipodi:nodetypes="cc" />
    <path
       style="fill:none;stroke:#ff4081;stroke-width:0.26499999;stroke-linecap:butt;stroke-linejoin:miter;stroke-miterlimit:4;stroke-dasharray:none;stroke-opacity:1;marker-end:url(#Arrow2Lend-0)"
       d="M 99.780165,47.014399 93.01801,54.333686"
       id="path96-3"
       inkscape:connector-curvature="0"
       sodipodi:nodetypes="cc" />
    <path
       style="fill:none;stroke:#000000;stroke-width:0.26499999;stroke-linecap:butt;stroke-linejoin:miter;stroke-miterlimit:4;stroke-dasharray:none;stroke-opacity:1;marker-end:url(#Arrow2Lend-5)"
       d="m 83.325894,76.726428 9.190002,-6.000202"
       id="path96-6"
       inkscape:connector-curvature="0"
       sodipodi:nodetypes="cc" />
    <path
       style="fill:none;stroke:#000000;stroke-width:0.26499999;stroke-linecap:butt;stroke-linejoin:miter;stroke-miterlimit:4;stroke-dasharray:none;stroke-opacity:1;marker-end:url(#Arrow2Lend-1)"
       d="m 129.06346,58.426442 -13.84431,0.748711"
       id="path96-8"
       inkscape:connector-curvature="0"
       sodipodi:nodetypes="cc" />
  </g>
</svg>
