<?xml version="1.0" encoding="UTF-8" standalone="no"?>
<svg
   xmlns:dc="http://purl.org/dc/elements/1.1/"
   xmlns:cc="http://creativecommons.org/ns#"
   xmlns:rdf="http://www.w3.org/1999/02/22-rdf-syntax-ns#"
   xmlns:svg="http://www.w3.org/2000/svg"
   xmlns="http://www.w3.org/2000/svg"
   xmlns:sodipodi="http://sodipodi.sourceforge.net/DTD/sodipodi-0.dtd"
   xmlns:inkscape="http://www.inkscape.org/namespaces/inkscape"
   width="437.32971mm"
   height="298.70367mm"
   viewBox="0 0 437.32971 298.70367"
   version="1.1"
   id="svg8"
   inkscape:version="1.0.1 (0767f8302a, 2020-10-17)"
   sodipodi:docname="cb0.svg">
  <defs
     id="defs2" />
  <sodipodi:namedview
     id="base"
     pagecolor="#ffffff"
     bordercolor="#666666"
     borderopacity="1.0"
     inkscape:pageopacity="0.0"
     inkscape:pageshadow="2"
     inkscape:zoom="0.49497475"
     inkscape:cx="768.11996"
     inkscape:cy="722.05397"
     inkscape:document-units="mm"
     inkscape:current-layer="layer1"
     inkscape:document-rotation="0"
     showgrid="false"
     inkscape:window-width="1864"
     inkscape:window-height="1043"
     inkscape:window-x="56"
     inkscape:window-y="0"
     inkscape:window-maximized="1" />
  <metadata
     id="metadata5">
    <rdf:RDF>
      <cc:Work
         rdf:about="">
        <dc:format>image/svg+xml</dc:format>
        <dc:type
           rdf:resource="http://purl.org/dc/dcmitype/StillImage" />
        <dc:title></dc:title>
      </cc:Work>
    </rdf:RDF>
  </metadata>
  <g
     inkscape:label="Layer 1"
     inkscape:groupmode="layer"
     id="layer1"
     transform="translate(174.3356,33.555183)">
    <rect
       style="fill:#ffffff;fill-opacity:1;stroke:none;stroke-width:0.405964"
       id="rect854"
       width="437.32971"
       height="298.70367"
       x="-174.3356"
       y="-33.555183" />
    <g
       aria-label="Computational Biology"
       id="text835"
       style="font-size:21.1618px;line-height:1.25;font-family:sans-serif;text-align:center;text-anchor:middle;stroke-width:0.397;stroke-miterlimit:4;stroke-dasharray:none"
       transform="matrix(0.87722987,0,0,0.87722987,5.4423075,14.216371)">
      <path
         d="m -19.60047,94.16988 v 2.20091 q -1.053957,-0.981627 -2.252574,-1.467273 -1.188285,-0.485647 -2.531563,-0.485647 -2.645225,0 -4.050501,1.622267 -1.405276,1.611934 -1.405276,4.670473 0,3.04821 1.405276,4.67048 1.405276,1.61193 4.050501,1.61193 1.343278,0 2.531563,-0.48565 1.198617,-0.48564 2.252574,-1.46727 v 2.18025 q -1.095288,0.74397 -2.324905,1.11595 -1.219283,0.37198 -2.583227,0.37198 -3.502857,0 -5.517774,-2.13891 -2.014918,-2.14924 -2.014918,-5.85876 0,-3.719846 2.014918,-5.858758 2.014917,-2.149245 5.517774,-2.149245 1.38461,0 2.603893,0.371984 1.229617,0.361652 2.304239,1.095289 z"
         style="font-weight:normal;text-align:center;text-anchor:middle;stroke-width:0.397;stroke-miterlimit:4;stroke-dasharray:none"
         id="path906" />
      <path
         d="m -11.954117,98.168716 q -1.52927,0 -2.417901,1.198618 -0.88863,1.188286 -0.88863,3.265196 0,2.07692 0.878298,3.27554 0.88863,1.18828 2.428233,1.18828 1.518938,0 2.4075686,-1.19862 0.8886303,-1.19861 0.8886303,-3.2652 0,-2.05625 -0.8886303,-3.254863 -0.8886306,-1.208951 -2.4075686,-1.208951 z m 0,-1.611934 q 2.4798989,0 3.8955077,1.611934 1.4156087,1.611934 1.4156087,4.463814 0,2.84155 -1.4156087,4.46382 -1.4156088,1.61193 -3.8955077,1.61193 -2.490231,0 -3.90584,-1.61193 -1.405275,-1.62227 -1.405275,-4.46382 0,-2.85188 1.405275,-4.463814 1.415609,-1.611934 3.90584,-1.611934 z"
         style="font-weight:normal;text-align:center;text-anchor:middle;stroke-width:0.397;stroke-miterlimit:4;stroke-dasharray:none"
         id="path908" />
      <path
         d="m 5.508503,99.057347 q 0.7129708,-1.281281 1.7049302,-1.890923 0.9919594,-0.609642 2.3352377,-0.609642 1.8082591,0 2.7898861,1.270948 0.981626,1.260615 0.981626,3.59585 v 6.98505 h -1.911588 v -6.92305 q 0,-1.663598 -0.588976,-2.469565 -0.588976,-0.805967 -1.7979265,-0.805967 -1.4776062,0 -2.3352378,0.981626 -0.8576315,0.981626 -0.8576315,2.676226 v 6.54073 H 3.9172348 v -6.92305 q 0,-1.673931 -0.5889759,-2.469565 -0.5889759,-0.805967 -1.8185922,-0.805967 -1.4569404,0 -2.31457196,0.991959 -0.85763154,0.981623 -0.85763154,2.665893 v 6.54073 H -3.5741252 V 96.835771 h 1.9115884 v 1.797926 q 0.6509733,-1.06429 1.56026944,-1.570602 0.90929611,-0.506313 2.15957826,-0.506313 1.2606151,0 2.1389124,0.640641 0.8886303,0.64064 1.3122797,1.859924 z"
         style="font-weight:normal;text-align:center;text-anchor:middle;stroke-width:0.397;stroke-miterlimit:4;stroke-dasharray:none"
         id="path910" />
      <path
         d="m 18.961952,106.6727 v 6.13775 H 17.050364 V 96.835771 h 1.911588 v 1.756595 q 0.599309,-1.033291 1.508605,-1.529271 0.919629,-0.506313 2.190577,-0.506313 2.107914,0 3.420193,1.673932 1.322613,1.673931 1.322613,4.401816 0,2.72789 -1.322613,4.40182 -1.312279,1.67393 -3.420193,1.67393 -1.270948,0 -2.190577,-0.49597 -0.909296,-0.50632 -1.508605,-1.53961 z m 6.468402,-4.04017 q 0,-2.09758 -0.867965,-3.285862 -0.857631,-1.198618 -2.366236,-1.198618 -1.508605,0 -2.376569,1.198618 -0.857632,1.188282 -0.857632,3.285862 0,2.09758 0.857632,3.2962 0.867964,1.18829 2.376569,1.18829 1.508605,0 2.366236,-1.18829 0.867965,-1.19862 0.867965,-3.2962 z"
         style="font-weight:normal;text-align:center;text-anchor:middle;stroke-width:0.397;stroke-miterlimit:4;stroke-dasharray:none"
         id="path912" />
      <path
         d="m 30.35915,103.84148 v -7.005709 h 1.901255 v 6.933379 q 0,1.64294 0.640641,2.46957 0.64064,0.8163 1.921921,0.8163 1.539604,0 2.428234,-0.98163 0.898963,-0.98162 0.898963,-2.67622 v -6.561399 h 1.901256 v 11.572859 h -1.901256 v -1.77726 q -0.692305,1.05396 -1.611934,1.5706 -0.909296,0.50631 -2.118246,0.50631 -1.994252,0 -3.027543,-1.23994 -1.033291,-1.23995 -1.033291,-3.62686 z m 4.784137,-7.284698 z"
         style="font-weight:normal;text-align:center;text-anchor:middle;stroke-width:0.397;stroke-miterlimit:4;stroke-dasharray:none"
         id="path914" />
      <path
         d="m 45.86885,93.549905 v 3.285866 h 3.916173 v 1.477606 H 45.86885 v 6.282413 q 0,1.41561 0.382318,1.81859 0.39265,0.40298 1.580935,0.40298 h 1.95292 v 1.59127 h -1.95292 q -2.20091,0 -3.037876,-0.8163 -0.836966,-0.82663 -0.836966,-2.99654 v -6.282413 h -1.394942 v -1.477606 h 1.394942 v -3.285866 z"
         style="font-weight:normal;text-align:center;text-anchor:middle;stroke-width:0.397;stroke-miterlimit:4;stroke-dasharray:none"
         id="path916" />
      <path
         d="m 57.555375,102.5912 q -2.304239,0 -3.19287,0.52698 -0.88863,0.52698 -0.88863,1.79793 0,1.01262 0.661306,1.61193 0.671639,0.58898 1.818592,0.58898 1.580936,0 2.531563,-1.11596 0.960961,-1.12628 0.960961,-2.98621 v -0.42365 z m 3.792178,-0.7853 v 6.60273 h -1.901256 v -1.75659 q -0.650973,1.05395 -1.622267,1.56027 -0.971293,0.49597 -2.376569,0.49597 -1.777261,0 -2.831218,-0.99195 -1.043624,-1.0023 -1.043624,-2.67623 0,-1.95292 1.301947,-2.94488 1.31228,-0.99196 3.90584,-0.99196 h 2.665891 v -0.18599 q 0,-1.312279 -0.867964,-2.02525 -0.857632,-0.723304 -2.417901,-0.723304 -0.99196,0 -1.932255,0.237657 -0.940294,0.237657 -1.808259,0.712971 v -1.756595 q 1.043624,-0.402983 2.025251,-0.599309 0.981626,-0.206658 1.911588,-0.206658 2.510897,0 3.750846,1.301947 1.23995,1.301947 1.23995,3.947171 z"
         style="font-weight:normal;text-align:center;text-anchor:middle;stroke-width:0.397;stroke-miterlimit:4;stroke-dasharray:none"
         id="path918" />
      <path
         d="m 67.154647,93.549905 v 3.285866 h 3.916173 v 1.477606 h -3.916173 v 6.282413 q 0,1.41561 0.382318,1.81859 0.39265,0.40298 1.580935,0.40298 h 1.95292 v 1.59127 H 69.1179 q -2.20091,0 -3.037876,-0.8163 -0.836965,-0.82663 -0.836965,-2.99654 v -6.282413 h -1.394943 v -1.477606 h 1.394943 v -3.285866 z"
         style="font-weight:normal;text-align:center;text-anchor:middle;stroke-width:0.397;stroke-miterlimit:4;stroke-dasharray:none"
         id="path920" />
      <path
         d="m 73.581713,96.835771 h 1.901255 v 11.572859 h -1.901255 z m 0,-4.505149 h 1.901255 v 2.407568 h -1.901255 z"
         style="font-weight:normal;text-align:center;text-anchor:middle;stroke-width:0.397;stroke-miterlimit:4;stroke-dasharray:none"
         id="path922" />
      <path
         d="m 83.935291,98.168716 q -1.529271,0 -2.417901,1.198618 -0.888631,1.188286 -0.888631,3.265196 0,2.07692 0.878298,3.27554 0.88863,1.18828 2.428234,1.18828 1.518937,0 2.407568,-1.19862 0.88863,-1.19861 0.88863,-3.2652 0,-2.05625 -0.88863,-3.254863 -0.888631,-1.208951 -2.407568,-1.208951 z m 0,-1.611934 q 2.479898,0 3.895507,1.611934 1.415609,1.611934 1.415609,4.463814 0,2.84155 -1.415609,4.46382 -1.415609,1.61193 -3.895507,1.61193 -2.490232,0 -3.90584,-1.61193 -1.405276,-1.62227 -1.405276,-4.46382 0,-2.85188 1.405276,-4.463814 1.415608,-1.611934 3.90584,-1.611934 z"
         style="font-weight:normal;text-align:center;text-anchor:middle;stroke-width:0.397;stroke-miterlimit:4;stroke-dasharray:none"
         id="path924" />
      <path
         d="m 102.00755,101.42358 v 6.98505 h -1.90125 v -6.92305 q 0,-1.642932 -0.640643,-2.459232 -0.640641,-0.8163 -1.921921,-0.8163 -1.539604,0 -2.428234,0.981626 -0.888631,0.981626 -0.888631,2.676226 v 6.54073 H 92.315283 V 96.835771 h 1.911588 v 1.797926 q 0.681972,-1.043624 1.601601,-1.560269 0.929962,-0.516646 2.138913,-0.516646 1.994252,0 3.017205,1.239949 1.02296,1.229617 1.02296,3.626849 z"
         style="font-weight:normal;text-align:center;text-anchor:middle;stroke-width:0.397;stroke-miterlimit:4;stroke-dasharray:none"
         id="path926" />
      <path
         d="m 111.07985,102.5912 q -2.30424,0 -3.19287,0.52698 -0.88863,0.52698 -0.88863,1.79793 0,1.01262 0.66131,1.61193 0.67164,0.58898 1.81859,0.58898 1.58093,0 2.53156,-1.11596 0.96096,-1.12628 0.96096,-2.98621 v -0.42365 z m 3.79218,-0.7853 v 6.60273 h -1.90126 v -1.75659 q -0.65097,1.05395 -1.62226,1.56027 -0.9713,0.49597 -2.37657,0.49597 -1.77726,0 -2.83122,-0.99195 -1.04363,-1.0023 -1.04363,-2.67623 0,-1.95292 1.30195,-2.94488 1.31228,-0.99196 3.90584,-0.99196 h 2.66589 v -0.18599 q 0,-1.312279 -0.86796,-2.02525 -0.85763,-0.723304 -2.4179,-0.723304 -0.99196,0 -1.93226,0.237657 -0.94029,0.237657 -1.80826,0.712971 v -1.756595 q 1.04363,-0.402983 2.02525,-0.599309 0.98163,-0.206658 1.91159,-0.206658 2.5109,0 3.75085,1.301947 1.23995,1.301947 1.23995,3.947171 z"
         style="font-weight:normal;text-align:center;text-anchor:middle;stroke-width:0.397;stroke-miterlimit:4;stroke-dasharray:none"
         id="path928" />
      <path
         d="m 118.79853,92.330622 h 1.90126 v 16.078008 h -1.90126 z"
         style="font-weight:normal;text-align:center;text-anchor:middle;stroke-width:0.397;stroke-miterlimit:4;stroke-dasharray:none"
         id="path930" />
      <path
         d="m 9.8483247,127.49352 v 5.6521 h 3.3478633 q 1.684264,0 2.490231,-0.69231 0.8163,-0.70264 0.8163,-2.13891 0,-1.44661 -0.8163,-2.12858 -0.805967,-0.6923 -2.490231,-0.6923 z m 0,-6.34441 v 4.64981 h 3.0895403 q 1.529271,0 2.27324,-0.56831 0.754303,-0.57864 0.754303,-1.7566 0,-1.16762 -0.754303,-1.74626 -0.743969,-0.57864 -2.27324,-0.57864 z m -2.0872479,-1.71526 h 5.3317822 q 2.386902,0 3.678516,0.99196 1.291613,0.99195 1.291613,2.82088 0,1.41561 -0.661306,2.25257 -0.661306,0.83697 -1.942587,1.04363 1.539604,0.33065 2.386902,1.38461 0.857632,1.04362 0.857632,2.61422 0,2.06659 -1.405276,3.19287 -1.405276,1.12629 -3.998836,1.12629 H 7.7610768 Z"
         style="font-weight:normal;text-align:center;text-anchor:middle;stroke-width:0.397;stroke-miterlimit:4;stroke-dasharray:none"
         id="path932" />
      <path
         d="m 22.18582,123.28802 h 1.901255 v 11.57286 H 22.18582 Z m 0,-4.50515 h 1.901255 v 2.40757 H 22.18582 Z"
         style="font-weight:normal;text-align:center;text-anchor:middle;stroke-width:0.397;stroke-miterlimit:4;stroke-dasharray:none"
         id="path934" />
      <path
         d="m 32.539396,124.62097 q -1.529271,0 -2.417901,1.19861 -0.888631,1.18829 -0.888631,3.2652 0,2.07692 0.878298,3.27554 0.88863,1.18828 2.428234,1.18828 1.518938,0 2.407568,-1.19862 0.88863,-1.19861 0.88863,-3.2652 0,-2.05625 -0.88863,-3.25486 -0.88863,-1.20895 -2.407568,-1.20895 z m 0,-1.61194 q 2.479898,0 3.895507,1.61194 1.415609,1.61193 1.415609,4.46381 0,2.84155 -1.415609,4.46382 -1.415609,1.61194 -3.895507,1.61194 -2.490232,0 -3.90584,-1.61194 -1.405276,-1.62227 -1.405276,-4.46382 0,-2.85188 1.405276,-4.46381 1.415608,-1.61194 3.90584,-1.61194 z"
         style="font-weight:normal;text-align:center;text-anchor:middle;stroke-width:0.397;stroke-miterlimit:4;stroke-dasharray:none"
         id="path936" />
      <path
         d="m 40.991715,118.78287 h 1.901255 v 16.07801 h -1.901255 z"
         style="font-weight:normal;text-align:center;text-anchor:middle;stroke-width:0.397;stroke-miterlimit:4;stroke-dasharray:none"
         id="path938" />
      <path
         d="m 51.345293,124.62097 q -1.529271,0 -2.417901,1.19861 -0.888631,1.18829 -0.888631,3.2652 0,2.07692 0.878298,3.27554 0.88863,1.18828 2.428234,1.18828 1.518937,0 2.407568,-1.19862 0.88863,-1.19861 0.88863,-3.2652 0,-2.05625 -0.88863,-3.25486 -0.888631,-1.20895 -2.407568,-1.20895 z m 0,-1.61194 q 2.479898,0 3.895507,1.61194 1.415608,1.61193 1.415608,4.46381 0,2.84155 -1.415608,4.46382 -1.415609,1.61194 -3.895507,1.61194 -2.490232,0 -3.905841,-1.61194 -1.405275,-1.62227 -1.405275,-4.46382 0,-2.85188 1.405275,-4.46381 1.415609,-1.61194 3.905841,-1.61194 z"
         style="font-weight:normal;text-align:center;text-anchor:middle;stroke-width:0.397;stroke-miterlimit:4;stroke-dasharray:none"
         id="path940" />
      <path
         d="m 67.41297,128.94012 q 0,-2.06658 -0.857631,-3.2032 -0.847299,-1.13662 -2.386903,-1.13662 -1.52927,0 -2.386902,1.13662 -0.847299,1.13662 -0.847299,3.2032 0,2.05625 0.847299,3.19287 0.857632,1.13662 2.386902,1.13662 1.539604,0 2.386903,-1.13662 0.857631,-1.13662 0.857631,-3.19287 z m 1.901256,4.48449 q 0,2.95521 -1.31228,4.39148 -1.31228,1.44661 -4.019502,1.44661 -1.002292,0 -1.890923,-0.15499 -0.88863,-0.14466 -1.725596,-0.45465 v -1.84959 q 0.836966,0.45465 1.653266,0.67164 0.8163,0.21699 1.663598,0.21699 1.870257,0 2.800219,-0.98163 0.929962,-0.97129 0.929962,-2.94488 v -0.94029 q -0.588976,1.02296 -1.508605,1.52927 -0.919629,0.50631 -2.20091,0.50631 -2.128579,0 -3.430526,-1.62227 -1.301947,-1.62226 -1.301947,-4.29849 0,-2.68655 1.301947,-4.30882 1.301947,-1.62227 3.430526,-1.62227 1.281281,0 2.20091,0.50632 0.919629,0.50631 1.508605,1.52927 v -1.7566 h 1.901256 z"
         style="font-weight:normal;text-align:center;text-anchor:middle;stroke-width:0.397;stroke-miterlimit:4;stroke-dasharray:none"
         id="path942" />
      <path
         d="m 78.045536,135.9355 q -0.805967,2.06659 -1.570602,2.69689 -0.764635,0.63031 -2.045916,0.63031 H 72.91008 v -1.59127 h 1.115954 q 0.785302,0 1.219284,-0.37198 0.433982,-0.37199 0.96096,-1.7566 l 0.340986,-0.86796 -4.680808,-11.38687 h 2.014918 l 3.616518,9.05163 3.616519,-9.05163 h 2.014917 z"
         style="font-weight:normal;text-align:center;text-anchor:middle;stroke-width:0.397;stroke-miterlimit:4;stroke-dasharray:none"
         id="path944" />
    </g>
  </g>
</svg>
