<?xml version="1.0" encoding="UTF-8" standalone="no"?>
<!-- Created with Inkscape (http://www.inkscape.org/) -->

<svg
   xmlns:dc="http://purl.org/dc/elements/1.1/"
   xmlns:cc="http://creativecommons.org/ns#"
   xmlns:rdf="http://www.w3.org/1999/02/22-rdf-syntax-ns#"
   xmlns:svg="http://www.w3.org/2000/svg"
   xmlns="http://www.w3.org/2000/svg"
   xmlns:sodipodi="http://sodipodi.sourceforge.net/DTD/sodipodi-0.dtd"
   xmlns:inkscape="http://www.inkscape.org/namespaces/inkscape"
   width="257.36597mm"
   height="263.31549mm"
   viewBox="0 0 257.36597 263.31549"
   version="1.1"
   id="svg10738"
   inkscape:version="0.92.3 (2405546, 2018-03-11)"
   sodipodi:docname="gradientdescent.svg">
  <defs
     id="defs10732">
    <inkscape:path-effect
       effect="spiro"
       id="path-effect11932"
       is_visible="true" />
    <inkscape:path-effect
       effect="spiro"
       id="path-effect11928"
       is_visible="true" />
    <marker
       inkscape:stockid="Arrow2Mend"
       orient="auto"
       refY="0"
       refX="0"
       id="Arrow2Mend"
       style="overflow:visible"
       inkscape:isstock="true">
      <path
         id="path11381"
         style="fill:#9c27b0;fill-opacity:1;fill-rule:evenodd;stroke:#9c27b0;stroke-width:0.625;stroke-linejoin:round;stroke-opacity:1"
         d="M 8.7185878,4.0337352 -2.2072895,0.01601326 8.7185884,-4.0017078 c -1.7454984,2.3720609 -1.7354408,5.6174519 -6e-7,8.035443 z"
         transform="scale(-0.6)"
         inkscape:connector-curvature="0" />
    </marker>
    <inkscape:path-effect
       effect="spiro"
       id="path-effect11323"
       is_visible="true" />
    <inkscape:path-effect
       effect="spiro"
       id="path-effect11319"
       is_visible="true" />
    <inkscape:path-effect
       effect="spiro"
       id="path-effect11315"
       is_visible="true" />
    <inkscape:path-effect
       effect="spiro"
       id="path-effect939"
       is_visible="true" />
    <inkscape:path-effect
       effect="spiro"
       id="path-effect924"
       is_visible="true" />
    <inkscape:path-effect
       effect="spiro"
       id="path-effect905"
       is_visible="true" />
    <inkscape:path-effect
       effect="spiro"
       id="path-effect905-7"
       is_visible="true" />
    <marker
       inkscape:stockid="Arrow2Mend"
       orient="auto"
       refY="0"
       refX="0"
       id="Arrow2Mend-9"
       style="overflow:visible"
       inkscape:isstock="true">
      <path
         id="path11381-1"
         style="fill:#9c27b0;fill-opacity:1;fill-rule:evenodd;stroke:#9c27b0;stroke-width:0.625;stroke-linejoin:round;stroke-opacity:1"
         d="M 8.7185878,4.0337352 -2.2072895,0.01601326 8.7185884,-4.0017078 c -1.7454984,2.3720609 -1.7354408,5.6174519 -6e-7,8.035443 z"
         transform="scale(-0.6)"
         inkscape:connector-curvature="0" />
    </marker>
    <marker
       inkscape:stockid="Arrow2Mend"
       orient="auto"
       refY="0"
       refX="0"
       id="Arrow2Mend-1"
       style="overflow:visible"
       inkscape:isstock="true">
      <path
         id="path11381-3"
         style="fill:#9c27b0;fill-opacity:1;fill-rule:evenodd;stroke:#9c27b0;stroke-width:0.625;stroke-linejoin:round;stroke-opacity:1"
         d="M 8.7185878,4.0337352 -2.2072895,0.01601326 8.7185884,-4.0017078 c -1.7454984,2.3720609 -1.7354408,5.6174519 -6e-7,8.035443 z"
         transform="scale(-0.6)"
         inkscape:connector-curvature="0" />
    </marker>
    <marker
       inkscape:stockid="Arrow2Mend"
       orient="auto"
       refY="0"
       refX="0"
       id="Arrow2Mend-94"
       style="overflow:visible"
       inkscape:isstock="true">
      <path
         id="path11381-5"
         style="fill:#9c27b0;fill-opacity:1;fill-rule:evenodd;stroke:#9c27b0;stroke-width:0.625;stroke-linejoin:round;stroke-opacity:1"
         d="M 8.7185878,4.0337352 -2.2072895,0.01601326 8.7185884,-4.0017078 c -1.7454984,2.3720609 -1.7354408,5.6174519 -6e-7,8.035443 z"
         transform="scale(-0.6)"
         inkscape:connector-curvature="0" />
    </marker>
  </defs>
  <sodipodi:namedview
     id="base"
     pagecolor="#ffffff"
     bordercolor="#666666"
     borderopacity="1.0"
     inkscape:pageopacity="0.0"
     inkscape:pageshadow="2"
     inkscape:zoom="0.98994949"
     inkscape:cx="851.39266"
     inkscape:cy="524.59535"
     inkscape:document-units="mm"
     inkscape:current-layer="layer1"
     showgrid="false"
     inkscape:window-width="1920"
     inkscape:window-height="1027"
     inkscape:window-x="1912"
     inkscape:window-y="118"
     inkscape:window-maximized="1" />
  <metadata
     id="metadata10735">
    <rdf:RDF>
      <cc:Work
         rdf:about="">
        <dc:format>image/svg+xml</dc:format>
        <dc:type
           rdf:resource="http://purl.org/dc/dcmitype/StillImage" />
        <dc:title></dc:title>
      </cc:Work>
    </rdf:RDF>
  </metadata>
  <g
     inkscape:label="Layer 1"
     inkscape:groupmode="layer"
     id="layer1"
     transform="translate(356.75342,139.7601)">
    <rect
       style="opacity:1;fill:#ffffff;fill-opacity:1;stroke:none;stroke-width:0.84960711;stroke-miterlimit:4;stroke-dasharray:none;stroke-dashoffset:0;stroke-opacity:1"
       id="rect11906"
       width="256.51636"
       height="262.46588"
       x="-356.32861"
       y="-139.3353" />
    <path
       style="fill:none;fill-opacity:1;stroke:#bdbdbd;stroke-width:1;stroke-linecap:butt;stroke-linejoin:miter;stroke-miterlimit:4;stroke-dasharray:none;stroke-opacity:1"
       d="m -178.53186,-111.9118 c 4.30401,0.007 8.57955,1.12208 12.4304,3.04446 3.85084,1.92237 7.28227,4.63992 10.18438,7.81833 5.80422,6.356821 9.42839,14.431627 11.84761,22.692712 4.36034,14.889573 5.04798,30.863757 1.79512,46.033822 -3.25286,15.170065 -10.45879,29.49912 -20.84013,41.0290668 -13.06973,14.5157822 -30.64783,24.2571702 -44.43834,38.0900162 -8.82908,8.856182 -15.9899,19.276357 -24.97994,27.969095 -4.49503,4.34637 -9.46389,8.261262 -15.03496,11.100148 -5.57108,2.838885 -11.77525,4.575473 -18.02691,4.462187 -5.465,-0.09903 -10.86705,-1.612705 -15.72214,-4.123506 -4.85509,-2.510801 -9.17219,-6.002237 -12.85622,-10.04005 -7.36805,-8.075627 -12.13698,-18.182686 -15.86,-28.460967 -2.8227,-7.792745 -5.12704,-15.904288 -5.18645,-24.192291 -0.0594,-8.288003 2.32765,-16.8378733 7.90717,-22.96677541 5.55146,-6.09807629 13.625,-9.22981559 21.5982,-11.33536159 7.9732,-2.105547 16.22744,-3.417386 23.74705,-6.802754 12.70311,-5.719009 22.19791,-16.887765 29.28084,-28.883937 7.08294,-11.996173 12.16283,-25.063602 18.78503,-37.320134 3.76501,-6.968366 8.10171,-13.75907 13.97729,-19.070471 5.87558,-5.3114 13.47157,-9.0573 21.392,-9.04359 z"
       id="path903"
       inkscape:connector-curvature="0"
       inkscape:path-effect="#path-effect905"
       inkscape:original-d="m -178.53186,-111.9118 c 11.78932,-9.37089 22.97538,22.369878 34.46239,33.555502 11.48703,11.185606 -12.69622,58.041469 -19.04501,87.0628888 -6.34877,29.0214062 -29.62511,25.3928972 -44.43834,38.0900162 -14.81323,12.697111 -38.69414,29.020499 -58.04181,43.53143 -19.34776,14.510933 -29.62512,-28.4168 -44.43836,-42.624523 -14.81323,-14.207733 1.81426,-31.439842 2.72072,-47.15906641 0.90645,-15.71923959 30.23062,-12.09253059 45.34525,-18.13811559 15.11457,-6.045589 32.04433,-44.136479 48.06587,-66.204071 16.02153,-22.067571 23.57998,-18.743141 35.36929,-28.114061 z" />
    <path
       style="fill:none;fill-opacity:1;stroke:#bdbdbd;stroke-width:1;stroke-linecap:butt;stroke-linejoin:miter;stroke-miterlimit:4;stroke-dasharray:none;stroke-opacity:1"
       d="m -166.35314,-54.997539 c 1.18525,3.382856 1.3703,7.07405 0.80037,10.612934 -0.56994,3.538884 -1.876,6.933034 -3.58294,10.084999 -3.41388,6.303929 -8.36792,11.606443 -12.92876,17.137519 -9.32371,11.3071538 -17.13436,23.7622631 -25.33051,35.911601 -9.66313,14.323874 -20.11693,28.494468 -33.98776,38.797363 -5.07034,3.766121 -10.62287,7.005833 -16.69855,8.731568 -6.07568,1.725734 -12.72792,1.855939 -18.61057,-0.443285 -4.11285,-1.607502 -7.7546,-4.372436 -10.47438,-7.851288 -2.71978,-3.478852 -4.51872,-7.658494 -5.25871,-12.011888 -1.47999,-8.706788 1.40133,-17.922675 7.11471,-24.657344 4.79236,-5.649005 11.31509,-9.542454 17.9558,-12.8255887 9.10036,-4.4991774 18.74783,-8.10376592 26.93361,-14.1081183 7.30988,-5.361874 13.2037,-12.48008 17.95581,-20.20028 4.0933,-6.649905 7.38079,-13.768256 11.44423,-20.436445 4.06344,-6.66819 9.03623,-12.995823 15.65451,-17.140058 3.4443,-2.15675 7.3645,-3.696929 11.42632,-3.824882 3.8174,-0.120254 7.65915,1.041467 10.78911,3.230154 3.12995,2.188686 5.53482,5.388585 6.79771,8.993039 z"
       id="path922"
       inkscape:connector-curvature="0"
       inkscape:path-effect="#path-effect924"
       inkscape:original-d="m -166.35314,-54.997539 c 3.41971,3.099967 -12.82512,26.398867 -15.71133,37.835452 -2.88619,11.4365916 -14.74895,21.482379 -25.33051,35.911601 -10.58155,14.429221 -22.65806,25.864471 -33.98776,38.797363 -11.3297,12.93291 -23.76569,7.112158 -35.30912,8.288283 -11.54347,1.176125 -5.51841,-31.267884 -8.61838,-44.52052 -3.09996,-13.252658 11.97099,-8.550837 17.9558,-12.8255887 5.98478,-4.2747296 17.95616,-9.40586123 26.93361,-14.1081183 8.97745,-4.702279 11.97098,-13.467317 17.95581,-20.20028 5.98482,-6.732987 17.15936,-26.033933 27.09874,-37.576503 9.93936,-11.54256 6.29653,-1.260215 11.42632,-3.824882 5.12977,-2.564666 14.16712,9.123232 17.58682,12.223193 z"
       sodipodi:nodetypes="cssssscssssc" />
    <path
       style="fill:none;fill-opacity:1;stroke:#bdbdbd;stroke-width:1;stroke-linecap:butt;stroke-linejoin:miter;stroke-miterlimit:4;stroke-dasharray:none;stroke-opacity:1"
       d="m -235.4513,18.681167 c 1.11645,0.830691 1.82245,2.148025 2.04324,3.52198 0.22079,1.373955 -0.0178,2.797211 -0.5344,4.089341 -1.03325,2.584259 -3.09128,4.594373 -5.01563,6.605066 -1.64097,1.714604 -3.2266,3.489751 -5.01482,5.050176 -1.78822,1.560425 -3.80329,2.912652 -6.06376,3.635788 -2.26047,0.723137 -4.79107,0.774531 -6.96174,-0.185066 -1.08534,-0.479799 -2.0661,-1.207168 -2.80521,-2.135546 -0.7391,-0.928379 -1.23123,-2.059082 -1.36232,-3.23848 -0.16918,-1.522121 0.26657,-3.074896 1.05153,-4.38993 0.78495,-1.315034 1.90326,-2.406815 3.13301,-3.319607 2.4595,-1.825582 5.36541,-2.967398 7.86818,-4.733188 2.13689,-1.507648 3.96243,-3.457882 6.24727,-4.730214 1.14242,-0.636167 2.40254,-1.095325 3.70743,-1.179458 1.3049,-0.08413 2.65815,0.228576 3.70722,1.009138 z"
       id="path937"
       inkscape:connector-curvature="0"
       inkscape:path-effect="#path-effect939"
       inkscape:original-d="m -235.4513,18.681167 c 5.39215,-2.507834 -0.99842,8.572892 -3.50679,14.216387 -2.50836,5.643489 -15.21629,2.123369 -22.20785,3.126872 -6.99158,1.003503 7.94597,-8.304612 12.05272,-12.442725 4.10675,-4.138102 8.26976,-2.392691 13.66192,-4.900534 z"
       sodipodi:nodetypes="scsss" />
    <path
       style="fill:none;fill-opacity:1;stroke:#bdbdbd;stroke-width:1;stroke-linecap:butt;stroke-linejoin:miter;stroke-miterlimit:4;stroke-dasharray:none;stroke-opacity:1"
       d="m -242.18641,-17.542849 c 10.54824,-8.155524 17.88236,-19.705289 24.48641,-31.288227 3.952,-6.931478 7.76057,-14.020274 12.92793,-20.099928 5.16735,-6.079655 11.90601,-11.164482 19.72066,-12.775381 5.04921,-1.040836 10.39175,-0.571381 15.20358,1.279059 4.81184,1.850439 9.0805,5.069088 12.23029,9.15035 5.22192,6.766166 7.21513,15.69171 6.44077,24.203454 -0.77435,8.511744 -4.14665,16.634574 -8.70804,23.862515 -8.8153,13.9686436 -21.83618,24.6693831 -32.8753,36.956379 -12.191,13.569079 -21.99706,29.123371 -34.00894,42.851267 -5.55496,6.348543 -11.665,12.364818 -18.99444,16.541048 -7.32944,4.176231 -16.03243,6.395736 -24.31026,4.771222 -5.83783,-1.145667 -11.23045,-4.158625 -15.59698,-8.199203 -4.36653,-4.040579 -7.73891,-9.080083 -10.24983,-14.473425 -2.36932,-5.089198 -4.00348,-10.552289 -4.46962,-16.146603 -0.46614,-5.594313 0.25995,-11.324287 2.42908,-16.501979 2.25615,-5.385396 6.01489,-10.055452 10.41285,-13.8961095 4.39796,-3.8406578 9.43135,-6.8905697 14.61096,-9.5858111 10.35922,-5.3904827 21.51237,-9.5057424 30.75088,-16.6486274 z"
       id="path11313"
       inkscape:connector-curvature="0"
       inkscape:path-effect="#path-effect11315"
       inkscape:original-d="m -242.18641,-17.542849 c 17.004,-8.31285 13.83073,-18.062977 24.48641,-31.288227 10.65569,-13.22525 24.48689,-24.562461 32.64859,-32.875309 8.1617,-8.312848 18.06298,6.801339 27.43387,10.429409 9.37091,3.628069 -1.51105,32.04353 -2.26727,48.065969 -0.75619,16.0224387 -21.91642,24.6371411 -32.8753,36.956379 -10.95889,12.319246 -22.67218,28.567062 -34.00894,42.851267 -11.33677,14.284203 -28.86937,14.207733 -43.3047,21.31227 -14.43535,7.104536 -17.23075,-15.115532 -25.84681,-22.672628 -8.61603,-7.557091 -2.94699,-16.702614 -2.04054,-32.648582 0.90646,-15.9459658 38.77062,-31.8177032 55.77469,-40.130548 z"
       sodipodi:nodetypes="cssscsssscc" />
    <path
       style="fill:none;stroke:#bdbdbd;stroke-width:1;stroke-linecap:butt;stroke-linejoin:miter;stroke-miterlimit:4;stroke-dasharray:none;stroke-opacity:1"
       d="m -180.06344,-45.883635 c 1.73253,2.180904 2.46956,5.056273 2.32025,7.837585 -0.1493,2.781313 -1.13623,5.472429 -2.54071,7.87772 -2.80896,4.810583 -7.18241,8.467103 -10.88914,12.625479 -6.52792,7.323308 -10.98453,16.2061845 -15.87083,24.7131635 -5.20164,9.0559865 -10.95934,17.7841215 -17.00446,26.3002485 -3.96153,5.58085 -8.0801,11.109314 -13.10452,15.756344 -5.02441,4.64703 -11.04328,8.40629 -17.73025,9.863724 -4.35915,0.950083 -8.95396,0.893464 -13.24674,-0.321831 -4.29277,-1.215296 -8.2695,-3.604359 -11.23973,-6.933409 -3.45926,-3.877155 -5.48755,-9.010129 -5.58073,-14.205332 -0.0932,-5.195203 1.75624,-10.4081 5.12731,-14.362178 3.60805,-4.23205 8.72617,-6.892122 13.93595,-8.838009 5.20978,-1.945888 10.64128,-3.283839 15.76519,-5.4457475 8.96993,-3.7846429 16.76068,-10.0145869 23.29284,-17.2335931 6.53216,-7.2190064 11.87326,-15.4290464 16.8377,-23.8038614 3.32604,-5.610906 6.69551,-11.529826 12.15299,-15.102034 2.72875,-1.786104 5.9555,-2.90666 9.21514,-2.802025 3.25964,0.104635 6.53113,1.520142 8.55974,4.073756 z"
       id="path11317"
       inkscape:connector-curvature="0"
       inkscape:path-effect="#path-effect11319"
       inkscape:original-d="m -180.06344,-45.883635 c 8.38842,-7.783819 -11.48702,20.631643 -11.1096,28.340784 0.37743,7.7091416 -10.80682,14.2077284 -15.87083,24.7131635 -5.06399,10.5054335 -11.33586,17.5330475 -17.00446,26.3002485 -5.66858,8.767194 -20.55606,17.079596 -30.83477,25.620068 -10.2787,8.540472 -16.32385,-4.837275 -24.48647,-7.25524 -8.16257,-2.417965 -0.30183,-19.045458 -0.45342,-28.56751 -0.15167,-9.522057 19.80121,-9.522954 29.70114,-14.2837565 9.89993,-4.760802 29.47486,-30.0038935 40.13054,-41.0374545 10.65569,-11.033563 21.53945,-6.046484 29.92787,-13.830303 z"
       sodipodi:nodetypes="ssccsccsss" />
    <path
       style="fill:none;stroke:#bdbdbd;stroke-width:1;stroke-linecap:butt;stroke-linejoin:miter;stroke-miterlimit:4;stroke-dasharray:none;stroke-opacity:1"
       d="m -195.21428,-35.002854 c 1.59761,0.821831 2.71938,2.427029 3.15186,4.170798 0.43249,1.743769 0.21928,3.607387 -0.38931,5.297768 -1.21719,3.380762 -3.87777,5.996383 -6.27756,8.670723 -7.44652,8.2984385 -12.97235,18.1299425 -17.87034,28.146149 -4.75985,9.733712 -9.09901,19.900092 -16.32009,27.978292 -3.61054,4.0391 -7.93639,7.504839 -12.89164,9.694793 -4.95524,2.189954 -10.56504,3.054614 -15.87353,1.972813 -4.00057,-0.815265 -7.83138,-2.777662 -10.5013,-5.866476 -1.33496,-1.544406 -2.36829,-3.356391 -2.96111,-5.309818 -0.59282,-1.953426 -0.73995,-4.047687 -0.36792,-6.054901 0.41238,-2.224899 1.45355,-4.3088 2.8534,-6.08662 1.39985,-1.77782 3.15105,-3.259151 5.04591,-4.495978 3.78972,-2.473653 8.1146,-3.970874 12.27934,-5.741697 8.68635,-3.693381 16.81433,-8.655946 24.2199,-14.5083994 9.22572,-7.2908738 17.47402,-16.1641256 22.33595,-26.8707766 1.35946,-2.993725 2.49242,-6.185342 4.70973,-8.613107 1.10866,-1.213883 2.48883,-2.211101 4.05851,-2.699709 1.56968,-0.488608 3.33631,-0.435866 4.7982,0.316146 z"
       id="path11321"
       inkscape:connector-curvature="0"
       inkscape:path-effect="#path-effect11323"
       inkscape:original-d="m -195.21428,-35.002854 c 2.79585,-1.51106 1.549,7.331555 -3.51501,18.139289 -5.06399,10.807738 -13.56212,19.3789503 -17.87034,28.146149 -4.30827,8.7672 -35.78905,34.808621 -45.08526,39.645898 -9.29622,4.837275 -9.21977,-11.487914 -13.83033,-17.231195 -4.61051,-5.743284 13.45289,-10.883313 20.17865,-16.324295 6.72579,-5.44098 13.56422,-7.026881 24.2199,-14.5083994 10.65569,-7.4815156 19.23782,-22.6390016 22.33595,-26.8707766 3.09815,-4.231775 10.77059,-9.48561 13.56644,-10.99667 z"
       sodipodi:nodetypes="sccsccscs" />
    <circle
       style="opacity:1;fill:#9c27b0;fill-opacity:1;stroke:#9c27b0;stroke-width:0.70563465;stroke-miterlimit:4;stroke-dasharray:none;stroke-opacity:1"
       id="path1036-2"
       cx="-168.13507"
       cy="-85.021935"
       r="2.1471827" />
    <path
       style="fill:#9c27b0;fill-opacity:1;stroke:#9c27b0;stroke-width:1;stroke-linecap:butt;stroke-linejoin:miter;stroke-miterlimit:4;stroke-dasharray:none;stroke-opacity:1;marker-end:url(#Arrow2Mend)"
       d="m -168.25226,-84.916959 -5.00604,15.796528"
       id="path11352"
       inkscape:connector-curvature="0"
       sodipodi:nodetypes="cc" />
    <path
       style="fill:none;fill-opacity:1;stroke:#bdbdbd;stroke-width:1;stroke-linecap:butt;stroke-linejoin:miter;stroke-miterlimit:4;stroke-dasharray:none;stroke-opacity:1"
       d="m -155.63577,-125.08456 c 11.85153,5.71234 21.02549,16.15974 26.75956,28.000772 5.73408,11.841027 8.23568,25.029705 9.03918,38.161495 0.96983,15.850218 -0.4883,31.957166 -5.47049,47.035223 -4.98219,15.0780567 -13.59123,29.104362 -25.60165,39.492807 -12.30731,10.64524 -27.65124,17.137912 -40.69657,26.864698 -13.33105,9.939825 -23.9596,23.021012 -36.38753,34.069253 -6.21397,5.524121 -12.925,10.567121 -20.37482,14.258932 -7.44981,3.69182 -15.68365,6.00154 -23.99736,5.89404 -7.27428,-0.0941 -14.48034,-2.0443 -20.9645,-5.34272 -6.48417,-3.29842 -12.2555,-7.924314 -17.13743,-13.317904 -9.76385,-10.787181 -15.86675,-24.436439 -19.96717,-38.396474 -3.32738,-11.328185 -5.44501,-23.217537 -4.05526,-34.942205 1.38975,-11.7246682 6.60847,-23.3269833 15.86314,-30.658446 7.89684,-6.255803 17.96064,-8.950327 27.73741,-11.381381 9.77676,-2.431055 19.85842,-4.875238 28.03135,-10.765775 9.71926,-7.00504 15.62645,-18.102718 20.00891,-29.252999 4.38245,-11.150282 7.62465,-22.838912 13.6244,-33.208949 7.18035,-12.410597 18.39182,-22.613587 31.77666,-27.754247 13.38484,-5.14065 28.89613,-4.98155 41.81217,1.24388 z"
       id="path903-5"
       inkscape:connector-curvature="0"
       inkscape:path-effect="#path-effect905-7"
       inkscape:original-d="m -155.63577,-125.08456 c 11.78932,-9.37089 24.31173,54.97671 35.79874,66.162267 11.48704,11.185547 -24.72337,57.5066153 -31.07214,86.52803 -6.34877,29.021409 -38.91795,20.684886 -40.69657,26.864698 -5.39619,18.749113 -61.41204,39.711287 -80.75971,54.222225 -19.34776,14.51095 -43.25586,-42.849368 -58.0691,-57.057098 -14.81323,-14.20773 10.90142,-49.8814374 11.80788,-65.600651 0.90645,-15.719237 40.65413,-16.101577 55.76876,-22.147156 15.11457,-6.045583 17.61178,-40.394484 33.63331,-62.461948 16.02153,-22.067497 61.79952,-17.139447 73.58883,-26.510367 z"
       sodipodi:nodetypes="ccsscsscsc" />
    <path
       style="fill:none;stroke:#bdbdbd;stroke-width:1;stroke-linecap:butt;stroke-linejoin:miter;stroke-opacity:1;stroke-miterlimit:4;stroke-dasharray:none"
       d="m -219.10961,6.7585986 c 0.30882,0.9745261 0.27483,2.034148 0.0433,3.0298743 -0.23151,0.9957261 -0.65293,1.9368441 -1.1124,2.8500561 -2.31249,4.596164 -5.61384,8.605678 -8.55262,12.828936 -4.60445,6.616947 -8.56692,14.044213 -15.23436,18.575233 -3.26356,2.217832 -7.15128,3.641624 -11.09577,3.538665 -1.97225,-0.05148 -3.94047,-0.485513 -5.72388,-1.329217 -1.78342,-0.843703 -3.37801,-2.101206 -4.56191,-3.67943 -1.21434,-1.618807 -1.98559,-3.567997 -2.19908,-5.580354 -0.21349,-2.012357 0.13241,-4.082279 0.99636,-5.912236 1.52585,-3.231924 4.53709,-5.535321 7.73087,-7.139478 3.19378,-1.604157 6.6453,-2.629031 9.90892,-4.085843 5.92341,-2.644084 11.143,-6.677896 15.7689,-11.2253182 1.27477,-1.2531457 2.51807,-2.5554909 3.9803,-3.5837443 1.46223,-1.0282535 3.18573,-1.7773552 4.97323,-1.7616486 1.09613,0.00963 2.19572,0.3149169 3.11062,0.9187101 0.91489,0.6037931 1.63637,1.5108323 1.96751,2.5557946 z"
       id="path11930"
       inkscape:connector-curvature="0"
       inkscape:path-effect="#path-effect11932"
       inkscape:original-d="m -219.10961,6.7585986 c 1.87062,-0.8015446 0.22298,2.1378913 -1.06909,5.8799304 -1.29206,3.742036 -5.61239,6.547839 -8.55262,12.828936 -2.94023,6.2811 -11.00233,14.209566 -15.23436,18.575233 -4.23203,4.365667 -14.25411,-0.980255 -21.38156,-1.469982 -7.12745,-0.489731 -0.80155,-7.661992 -1.20272,-11.49259 -0.40116,-3.830598 11.76013,-7.483811 17.63979,-11.225321 5.87967,-3.741507 10.51287,-7.483811 15.7689,-11.2253182 5.25604,-3.7415099 5.96929,-3.5638607 8.95353,-5.3453929 2.98425,-1.7815321 3.2075,4.2760493 5.07813,3.4745047 z"
       sodipodi:nodetypes="ccsssccscc" />
    <circle
       style="opacity:1;fill:#9c27b0;fill-opacity:1;stroke:#9c27b0;stroke-width:0.70563465;stroke-miterlimit:4;stroke-dasharray:none;stroke-opacity:1"
       id="path1036-2-5"
       cx="-174.54242"
       cy="-64.735992"
       r="2.1471827" />
    <circle
       style="opacity:1;fill:#9c27b0;fill-opacity:1;stroke:#9c27b0;stroke-width:0.70563465;stroke-miterlimit:4;stroke-dasharray:none;stroke-opacity:1"
       id="path1036-2-4"
       cx="-183.42914"
       cy="-49.23436"
       r="2.1471827" />
    <circle
       style="opacity:1;fill:#9c27b0;fill-opacity:1;stroke:#9c27b0;stroke-width:0.70563465;stroke-miterlimit:4;stroke-dasharray:none;stroke-opacity:1"
       id="path1036-2-47"
       cx="-194.52081"
       cy="-34.93544"
       r="2.1471827" />
    <circle
       style="opacity:1;fill:#9c27b0;fill-opacity:1;stroke:#9c27b0;stroke-width:0.70563465;stroke-miterlimit:4;stroke-dasharray:none;stroke-opacity:1"
       id="path1036-2-3"
       cx="-220.71323"
       cy="4.4868164"
       r="2.1471827" />
    <path
       style="fill:#9c27b0;fill-opacity:1;stroke:#9c27b0;stroke-width:1;stroke-linecap:butt;stroke-linejoin:miter;stroke-miterlimit:4;stroke-dasharray:none;stroke-opacity:1;marker-end:url(#Arrow2Mend-9)"
       d="m -176.23167,-62.037788 -4.90582,8.880928"
       id="path11352-7"
       inkscape:connector-curvature="0"
       sodipodi:nodetypes="cc" />
    <path
       style="fill:#9c27b0;fill-opacity:1;stroke:#9c27b0;stroke-width:1;stroke-linecap:butt;stroke-linejoin:miter;stroke-miterlimit:4;stroke-dasharray:none;stroke-opacity:1;marker-end:url(#Arrow2Mend-1)"
       d="m -185.20018,-46.992944 -6.81011,8.713885"
       id="path11352-6"
       inkscape:connector-curvature="0"
       sodipodi:nodetypes="cc" />
    <path
       style="fill:#9c27b0;fill-opacity:1;stroke:#9c27b0;stroke-width:1;stroke-linecap:butt;stroke-linejoin:miter;stroke-miterlimit:4;stroke-dasharray:none;stroke-opacity:1;marker-end:url(#Arrow2Mend-94)"
       d="m -196.35869,-32.460163 -21.7772,33.23586445"
       id="path11352-76"
       inkscape:connector-curvature="0"
       sodipodi:nodetypes="cc" />
  </g>
</svg>
