<?xml version="1.0" encoding="UTF-8" standalone="no"?>
<svg
   xmlns:dc="http://purl.org/dc/elements/1.1/"
   xmlns:cc="http://creativecommons.org/ns#"
   xmlns:rdf="http://www.w3.org/1999/02/22-rdf-syntax-ns#"
   xmlns:svg="http://www.w3.org/2000/svg"
   xmlns="http://www.w3.org/2000/svg"
   xmlns:sodipodi="http://sodipodi.sourceforge.net/DTD/sodipodi-0.dtd"
   xmlns:inkscape="http://www.inkscape.org/namespaces/inkscape"
   width="357.67004mm"
   height="295.41092mm"
   viewBox="0 0 357.67004 295.41092"
   version="1.1"
   id="svg17231"
   inkscape:version="1.0.1 (0767f8302a, 2020-10-17)"
   sodipodi:docname="sampling.svg">
  <defs
     id="defs17225">
    <inkscape:path-effect
       effect="spiro"
       id="path-effect991"
       is_visible="true" />
    <inkscape:path-effect
       effect="spiro"
       id="path-effect995"
       is_visible="true" />
    <inkscape:path-effect
       effect="spiro"
       id="path-effect987"
       is_visible="true" />
    <inkscape:path-effect
       effect="spiro"
       id="path-effect1015"
       is_visible="true" />
    <inkscape:path-effect
       effect="spiro"
       id="path-effect1011"
       is_visible="true" />
    <inkscape:path-effect
       effect="spiro"
       id="path-effect1003"
       is_visible="true" />
    <inkscape:path-effect
       effect="spiro"
       id="path-effect999"
       is_visible="true" />
    <inkscape:path-effect
       effect="spiro"
       id="path-effect939"
       is_visible="true" />
    <inkscape:path-effect
       effect="spiro"
       id="path-effect924"
       is_visible="true" />
    <inkscape:path-effect
       effect="spiro"
       id="path-effect905"
       is_visible="true" />
    <inkscape:path-effect
       effect="spiro"
       id="path-effect886"
       is_visible="true" />
  </defs>
  <sodipodi:namedview
     id="base"
     pagecolor="#ffffff"
     bordercolor="#666666"
     borderopacity="1.0"
     inkscape:pageopacity="0.0"
     inkscape:pageshadow="2"
     inkscape:zoom="0.49497475"
     inkscape:cx="582.01151"
     inkscape:cy="604.87307"
     inkscape:document-units="mm"
     inkscape:current-layer="layer1"
     showgrid="false"
     inkscape:window-width="1864"
     inkscape:window-height="1043"
     inkscape:window-x="56"
     inkscape:window-y="0"
     inkscape:window-maximized="1"
     inkscape:document-rotation="0" />
  <metadata
     id="metadata17228">
    <rdf:RDF>
      <cc:Work
         rdf:about="">
        <dc:format>image/svg+xml</dc:format>
        <dc:type
           rdf:resource="http://purl.org/dc/dcmitype/StillImage" />
        <dc:title />
      </cc:Work>
    </rdf:RDF>
  </metadata>
  <g
     inkscape:label="Layer 1"
     inkscape:groupmode="layer"
     id="layer1"
     transform="translate(324.73384,26.086415)">
    <path
       style="fill:none;fill-opacity:1;stroke:#bdbdbd;stroke-width:1;stroke-linecap:butt;stroke-linejoin:miter;stroke-opacity:1;stroke-miterlimit:4;stroke-dasharray:none"
       d="m -103.59421,-10.525704 c 5.904599,-5.371668 12.788216,-9.708222 20.296094,-12.419469 7.507879,-2.711247 15.643717,-3.773287 23.562696,-2.768865 7.91898,1.004423 15.603094,4.106418 21.810211,9.125462 6.207116,5.019044 10.887326,11.9712497 12.908229,19.693623 1.537984,5.8770174 1.541307,12.030776 2.28563,18.059931 0.372162,3.014578 0.935021,6.02003 1.95355,8.881634 1.018529,2.861605 2.506918,5.58413 4.58073,7.803473 2.292856,2.453758 5.240407,4.228504 8.3525119,5.490614 3.1121054,1.262109 6.3992628,2.034165 9.6909527,2.699671 6.5833798,1.331011 13.4615264,2.336171 19.1070054,5.974996 3.621307,2.334133 6.556277,5.678868 8.563992,9.490839 2.007714,3.811971 3.100812,8.079956 3.358082,12.380636 0.514539,8.601361 -2.287617,17.153587 -6.605513,24.610391 -8.635792,14.913608 -22.9251249,25.678988 -33.1126008,39.578918 -15.3657142,20.96518 -20.5631962,47.80238 -34.4777802,69.75753 -13.263562,20.92793 -34.0448,36.47081 -56.92839,45.97037 -23.85283,9.90191 -49.84997,13.54458 -75.63722,14.96709 -31.12911,1.71718 -63.52564,0.0536 -91.40616,-13.89801 -28.61839,-14.32082 -50.54157,-41.72055 -57.46294,-72.96464 -2.04012,-9.20941 -2.81882,-18.84894 -0.8018,-28.06344 2.57113,-11.74589 9.45579,-22.00877 16.03615,-32.07234 6.94646,-10.62345 13.79501,-21.48178 22.94408,-30.279833 4.57453,-4.399024 9.71339,-8.253799 15.40882,-11.053758 5.69544,-2.79996 11.96273,-4.526811 18.30825,-4.636766 10.73155,-0.185957 20.94003,4.163011 31.33483,6.836767 5.1974,1.336878 10.55421,2.266154 15.91345,1.985501 5.35924,-0.280653 10.74943,-1.837752 15.0255,-5.080498 3.05389,-2.315905 5.45044,-5.414961 7.32002,-8.760751 1.86957,-3.345791 3.23601,-6.946817 4.48952,-10.568744 2.50701,-7.243853 4.70135,-14.841884 9.57202,-20.760932 4.32276,-5.25321 10.40588,-8.733723 16.55359,-11.647158 6.14771,-2.913436 12.54653,-5.402832 18.19144,-9.199863 11.37072,-7.648479 18.72839,-19.910624 28.86505,-29.132379 z"
       id="path884"
       inkscape:connector-curvature="0"
       inkscape:path-effect="#path-effect886"
       inkscape:original-d="m -103.59421,-10.525704 c 9.97779,-10.33415 55.05778,8.64145 78.57723,13.630751 23.5194802,4.98929 6.682,23.341269 8.81991,34.745038 2.13789,11.403761 24.6781402,7.928732 37.15047,14.165281 12.47232,6.23656 -19.2431498,57.373604 -27.7960398,86.060784 -8.5529002,28.68725 -23.2522002,46.23752 -34.4777802,69.75753 -11.22555,23.51999 -38.93198,31.1812 -56.92839,45.97037 -17.99637,14.78918 -49.44454,9.44327 -75.63722,14.96709 -26.19268,5.52384 -60.93719,-9.26561 -91.40616,-13.89801 -30.46899,-4.63243 -38.39746,-48.73242 -57.46294,-72.96464 -19.06549,-24.2323 -0.4452,-18.62015 -0.8018,-28.06344 -0.35664,-9.44326 10.69104,-21.38183 16.03615,-32.07234 5.34514,-10.69051 35.8144,-30.825347 56.66115,-45.970357 20.84673,-15.145007 44.99061,1.95971 62.27378,3.74177 17.28316,1.78206 11.58194,-24.767237 21.38156,-40.090427 9.79962,-15.323191 22.27272,-13.720099 34.74503,-20.847021 12.47232,-7.12692 18.88729,-18.79821896 28.86505,-29.132379 z"
       sodipodi:nodetypes="ssssssssssccsssss" />
    <path
       style="fill:none;fill-opacity:1;stroke:#bdbdbd;stroke-width:1;stroke-linecap:butt;stroke-linejoin:miter;stroke-opacity:1;stroke-miterlimit:4;stroke-dasharray:none"
       d="m -72.28609,-9.680944 c 2.536826,0.00439 5.056876,0.6613628 7.326603,1.7944318 2.269726,1.133069 4.292245,2.7348158 6.002778,4.6082031 3.421068,3.7467744 5.557195,8.5061469 6.983109,13.3753141 2.570032,8.776066 2.97533,18.191414 1.05806,27.132805 -1.917271,8.941391 -6.164518,17.387081 -12.28339,24.182948 -7.703435,8.555746 -18.064143,14.297416 -26.19241,22.450635 -5.203948,5.219923 -9.424611,11.361679 -14.72343,16.485267 -2.64941,2.5618 -5.57811,4.86927 -8.86176,6.54254 -3.28364,1.67327 -6.94045,2.69683 -10.62524,2.63006 -3.22112,-0.0584 -6.40515,-0.95054 -9.26679,-2.43044 -2.86164,-1.47989 -5.40618,-3.53778 -7.57758,-5.9177 -4.34281,-4.75986 -7.15367,-10.717064 -9.34805,-16.775187 -1.66373,-4.593122 -3.02193,-9.374146 -3.05694,-14.259178 -0.035,-4.885032 1.37193,-9.924411 4.66056,-13.536847 3.27209,-3.594268 8.03071,-5.440148 12.7302,-6.681178 4.69948,-1.241031 9.56462,-2.014242 13.99675,-4.009613 7.48734,-3.370843 13.08367,-9.953821 17.25842,-17.024487 4.17476,-7.070665 7.168895,-14.772741 11.07209,-21.996864 2.219134,-4.1072249 4.775233,-8.1097343 8.238361,-11.240326 3.463127,-3.1305917 7.940277,-5.3384661 12.608659,-5.330384 z"
       id="path903"
       inkscape:connector-curvature="0"
       inkscape:path-effect="#path-effect905"
       inkscape:original-d="m -72.28609,-9.680944 c 6.94874,-5.5233 13.54193,13.18503 20.31249,19.777949 6.77055,6.592912 -7.48329,34.210231 -11.22533,51.315753 -3.74203,17.105505 -17.46134,14.966825 -26.19241,22.450635 -8.73107,7.48382 -22.80672,17.104977 -34.21043,25.657867 -11.40377,8.55289 -17.46135,-16.749147 -26.19242,-25.123327 -8.73107,-8.37418 1.06934,-18.530957 1.60362,-27.796025 0.53427,-9.265082 17.81823,-7.127462 26.72695,-10.690791 8.90868,-3.563329 18.88725,-26.01449 28.33051,-39.021351 9.44325,-13.00685 13.89828,-11.0474 20.84702,-16.57071 z" />
    <path
       style="fill:none;fill-opacity:1;stroke:#bdbdbd;stroke-width:1;stroke-linecap:butt;stroke-linejoin:miter;stroke-opacity:1;stroke-miterlimit:4;stroke-dasharray:none"
       d="m -65.10783,23.864895 c 0.563508,2.020112 0.593002,4.17029 0.224949,6.234977 -0.368052,2.064688 -1.125772,4.047627 -2.102263,5.90366 -1.952981,3.712068 -4.750319,6.896692 -7.383106,10.161966 -5.421975,6.724523 -10.230981,13.918508 -14.93006,21.166658 -5.563091,8.580855 -11.29066,17.561409 -20.03273,22.867567 -3.052,1.852465 -6.43852,3.210871 -9.97846,3.67465 -3.53995,0.463779 -7.23921,0.0015 -10.43219,-1.59579 -4.09304,-2.047501 -7.19749,-5.975627 -8.24072,-10.431734 -1.04322,-4.456106 -0.004,-9.355428 2.76006,-13.002782 2.64539,-3.490315 6.61663,-5.703272 10.58333,-7.559532 5.42402,-2.538231 11.14266,-4.645563 15.87494,-8.315468 4.21052,-3.265279 7.43175,-7.609972 10.58334,-11.90625 5.324227,-7.258042 10.682129,-14.622574 17.57589,-20.41072 1.139026,-0.95635 2.32569,-1.872361 3.650124,-2.549014 1.324434,-0.676653 2.801556,-1.107515 4.287376,-1.041757 1.810375,0.08012 3.551052,0.908516 4.863273,2.158297 1.312221,1.249782 2.209339,2.899764 2.696247,4.645272 z"
       id="path922"
       inkscape:connector-curvature="0"
       inkscape:path-effect="#path-effect924"
       inkscape:original-d="m -65.10783,23.864895 c 2.01561,1.827152 -7.55926,15.55976 -9.26042,22.300603 -1.70115,6.740839 -8.69318,12.661929 -14.93006,21.166658 -6.23687,8.504727 -13.35489,15.244777 -20.03273,22.867567 -6.67784,7.62278 -13.60684,1.38564 -20.41065,2.07886 -6.80384,0.69322 -3.65351,-15.62328 -5.48066,-23.434516 -1.82715,-7.811251 7.05582,-5.03995 10.58333,-7.559532 3.52749,-2.519569 10.58354,-5.54391 15.87494,-8.315468 5.2914,-2.771571 7.05582,-7.937769 10.58334,-11.90625 3.52751,-3.96849 11.71752,-13.607412 17.57589,-20.41072 5.85836,-6.8033 4.91395,-2.07913 7.9375,-3.590771 3.02354,-1.511639 5.54391,4.97642 7.55952,6.803569 z"
       sodipodi:nodetypes="cssssscssssc" />
    <path
       style="fill:none;fill-opacity:1;stroke:#bdbdbd;stroke-width:1;stroke-linecap:butt;stroke-linejoin:miter;stroke-opacity:1;stroke-miterlimit:4;stroke-dasharray:none"
       d="m -97.27362,58.487527 c 0.763079,0.621408 1.333064,1.468184 1.66139,2.395891 0.328326,0.927706 0.418581,1.93356 0.302715,2.910807 -0.231733,1.954495 -1.273918,3.748509 -2.640088,5.165312 -2.732337,2.833605 -6.601357,4.211255 -9.907347,6.347936 -3.12161,2.017514 -5.83378,4.771667 -9.32704,6.041291 -1.74663,0.634811 -3.68445,0.863256 -5.47324,0.35934 -0.89439,-0.251959 -1.74129,-0.685933 -2.44363,-1.294326 -0.70234,-0.608393 -1.25696,-1.393201 -1.56035,-2.271485 -0.27049,-0.783053 -0.33893,-1.630908 -0.23128,-2.452339 0.10764,-0.821432 0.3889,-1.616431 0.79198,-2.340214 0.80617,-1.447566 2.08111,-2.589763 3.48298,-3.473 2.80374,-1.766473 6.13403,-2.57457 8.90195,-4.396654 2.7112,-1.784741 4.74173,-4.449438 7.40434,-6.305887 1.33131,-0.928224 2.83909,-1.652511 4.44885,-1.859024 1.60976,-0.206513 3.33031,0.147534 4.58877,1.172352 z"
       id="path937"
       inkscape:connector-curvature="0"
       inkscape:path-effect="#path-effect939"
       inkscape:original-d="m -97.27362,58.487527 c 5.4174,-2.519572 -8.06322,11.150039 -10.58333,16.819946 -2.5201,5.6699 -11.77998,1.82662 -18.80426,2.83482 -7.02431,1.0082 8.81965,-8.504727 12.94563,-12.662207 4.12597,-4.157469 11.02457,-4.47298 16.44196,-6.992559 z"
       sodipodi:nodetypes="scsss" />
    <path
       style="fill:none;fill-opacity:1;stroke:#bdbdbd;stroke-width:1;stroke-linecap:butt;stroke-linejoin:miter;stroke-opacity:1;stroke-miterlimit:4;stroke-dasharray:none"
       d="m -265.0486,107.24004 c 6.14735,-2.67772 13.02269,-3.43379 19.70273,-2.85299 6.68003,0.5808 13.19191,2.4558 19.45226,4.8575 4.41565,1.69401 8.75121,3.66619 12.67846,6.3014 3.92725,2.63522 7.44814,5.96133 9.90581,10.00205 3.85348,6.33561 4.84381,14.42642 2.27179,21.38156 -1.54741,4.18443 -4.30551,7.87874 -7.7186,10.75185 -3.41309,2.8731 -7.46631,4.94107 -11.72567,6.2684 -8.51871,2.65465 -17.68495,2.35821 -26.52609,1.15407 -10.11649,-1.37784 -20.12568,-3.91106 -30.33509,-4.00903 -6.35706,-0.061 -12.83903,0.81383 -18.99334,-0.78004 -3.07715,-0.79694 -6.03831,-2.23716 -8.29368,-4.4771 -2.25537,-2.23993 -3.75058,-5.32876 -3.71624,-8.50725 0.0208,-1.92619 0.59306,-3.82483 1.50579,-5.52117 0.91272,-1.69634 2.15838,-3.19807 3.55177,-4.52814 2.78678,-2.66015 6.14099,-4.63533 9.24136,-6.9223 4.99587,-3.68516 9.3284,-8.17746 13.88021,-12.39885 4.55181,-4.2214 9.42705,-8.24081 15.11853,-10.71996 z"
       id="path985"
       inkscape:connector-curvature="0"
       inkscape:path-effect="#path-effect987"
       inkscape:original-d="m -265.0486,107.24004 c 10.69052,-8.463287 27.57357,1.78152 39.15499,2.00451 11.58141,0.22299 14.47736,11.62596 22.58427,16.30345 8.10691,4.67747 0.26753,13.8532 2.27179,21.38156 2.00425,7.52836 -33.27479,11.09141 -45.97036,18.17432 -12.69556,7.08292 -20.93585,-2.76205 -30.33509,-4.00903 -9.39924,-1.247 -17.10498,-10.02288 -31.00326,-13.76439 -13.89828,-3.74151 10.69104,-10.91376 14.29892,-16.97161 3.60787,-6.05785 18.30822,-14.65555 28.99874,-23.11881 z"
       sodipodi:nodetypes="ssssscsss" />
    <path
       style="fill:none;fill-opacity:1;stroke:#bdbdbd;stroke-width:1;stroke-linecap:butt;stroke-linejoin:miter;stroke-opacity:1;stroke-miterlimit:4;stroke-dasharray:none"
       d="m -245.67156,116.19356 c 3.24655,-0.33402 6.50708,0.64911 9.4268,2.1075 2.91972,1.45838 5.57539,3.38484 8.34662,5.10877 2.81379,1.7504 5.77499,3.31107 8.27407,5.48729 1.24954,1.08812 2.37745,2.32956 3.23713,3.746 0.85968,1.41644 1.44587,3.01368 1.58501,4.66473 0.19004,2.25498 -0.46615,4.53637 -1.63042,6.47687 -1.16427,1.9405 -2.81621,3.55666 -4.65041,4.88209 -4.57116,3.3032 -10.23185,4.82507 -15.85351,5.27609 -5.62167,0.45101 -11.26909,-0.10332 -16.88701,-0.59887 -3.41343,-0.3011 -6.87184,-0.58957 -10.10583,-1.72247 -1.61699,-0.56646 -3.16844,-1.34499 -4.52444,-2.39227 -1.35601,-1.04728 -2.51358,-2.36938 -3.27679,-3.90335 -0.83675,-1.68179 -1.18297,-3.59348 -1.06484,-5.46822 0.11812,-1.87473 0.69329,-3.71073 1.59938,-5.3562 1.25032,-2.2706 3.10294,-4.15728 5.10772,-5.80038 2.00478,-1.6431 4.17718,-3.06838 6.25123,-4.62312 2.19246,-1.64349 4.27916,-3.43463 6.57952,-4.92335 2.30036,-1.48872 4.8601,-2.68068 7.58577,-2.96111 z"
       id="path993"
       inkscape:connector-curvature="0"
       inkscape:path-effect="#path-effect995"
       inkscape:original-d="m -245.67156,116.19356 c 4.7215,-2.62788 11.84921,4.81058 17.77342,7.21627 5.92421,2.40569 9.39924,11.22506 13.09621,13.89802 3.69696,2.67297 -4.85513,5.61239 -6.28083,11.35896 -1.42571,5.74656 -24.94489,2.76152 -32.74052,4.67722 -7.79562,1.91568 -9.93325,-6.19201 -17.90706,-8.01809 -7.9738,-1.82608 1.47025,-6.01384 0.53454,-10.82442 -0.93571,-4.81059 7.5729,-6.94928 11.35895,-10.4235 3.78606,-3.47425 9.44379,-5.25658 14.16529,-7.88446 z"
       sodipodi:nodetypes="cscccsscc" />
    <path
       style="fill:none;fill-opacity:1;stroke:#bdbdbd;stroke-width:1;stroke-linecap:butt;stroke-linejoin:miter;stroke-opacity:1;stroke-miterlimit:4;stroke-dasharray:none"
       d="m -232.70899,127.01798 c 1.80283,0.8563 3.56169,1.85571 5.02276,3.21537 1.46108,1.35967 2.61525,3.11065 2.99533,5.06998 0.39768,2.05006 -0.0911,4.23561 -1.22652,5.98823 -1.13546,1.75261 -2.88933,3.07315 -4.84887,3.79504 -1.95954,0.72189 -4.11389,0.85904 -6.1733,0.51301 -2.05941,-0.34603 -4.02534,-1.16471 -5.792,-2.27819 -2.71156,-1.70903 -5.02608,-4.22008 -5.95541,-7.2876 -0.46467,-1.53376 -0.57101,-3.18456 -0.23071,-4.75062 0.3403,-1.56606 1.13593,-3.04154 2.31071,-4.1316 0.90309,-0.83796 2.01496,-1.4388 3.19424,-1.79522 1.17929,-0.35642 2.42492,-0.47239 3.65492,-0.40274 2.45999,0.13931 4.82321,1.00722 7.04885,2.06434 z"
       id="path989"
       inkscape:connector-curvature="0"
       inkscape:path-effect="#path-effect991"
       inkscape:original-d="m -232.70899,127.01798 c 4.63241,-0.0443 5.43475,3.83059 8.01809,8.28535 2.58334,4.45475 -10.95779,8.24054 -18.04069,8.01809 -7.08291,-0.22247 -3.74151,-11.98286 -3.87541,-16.16982 -0.1339,-4.18695 9.2656,-0.0893 13.89801,-0.13362 z"
       sodipodi:nodetypes="csssc" />
    <path
       style="fill:none;fill-opacity:1;stroke:#bdbdbd;stroke-width:1;stroke-linecap:butt;stroke-linejoin:miter;stroke-opacity:1;stroke-miterlimit:4;stroke-dasharray:none"
       d="m -5.9307798,61.136035 c 2.6497173,1.01222 4.93671838,2.88534 6.59381856,5.187428 C 2.3201389,68.625551 3.3609637,71.343126 3.8393581,74.138967 4.7961468,79.73065 3.534056,85.487234 1.5527702,90.802953 -4.0314596,105.78524 -15.046389,118.00301 -23.30333,131.69518 c -9.781385,16.2201 -15.659443,34.4713 -24.3215,51.31576 -9.686883,18.83736 -23.586456,36.43934 -42.76314,45.43582 -11.90694,5.58598 -25.19759,7.55901 -38.33305,8.22082 -13.13546,0.66181 -26.31383,0.0791 -39.44237,0.86634 -17.84798,1.07025 -35.49025,4.66547 -53.35682,5.35943 -17.86656,0.69395 -36.56806,-1.80754 -51.41284,-11.7739 -4.52227,-3.03612 -8.67296,-6.79887 -11.37452,-11.52862 -2.70156,-4.72975 -3.83136,-10.51866 -2.25623,-15.73287 1.04464,-3.45812 3.22586,-6.5196 5.96863,-8.87057 2.74277,-2.35098 6.03042,-4.01494 9.46734,-5.12734 6.87385,-2.22481 14.22849,-2.27407 21.44723,-2.5728 40.66077,-1.68263 80.47248,-11.88513 119.46948,-23.51972 21.47442,-6.4068 43.142573,-13.42069 61.73925,-25.92515 14.22962,-9.56804 26.671827,-22.74671 32.07236,-39.021347 2.891468,-8.713506 3.738483,-18.164383 8.0334,-26.278536 2.147458,-4.057076 5.198739,-7.735673 9.182702,-10.015911 1.991981,-1.14012 4.200949,-1.917186 6.480292,-2.186358 2.279344,-0.269172 4.6282723,-0.02325 6.7723362,0.795807 z"
       id="path997"
       inkscape:connector-curvature="0"
       inkscape:path-effect="#path-effect999"
       inkscape:original-d="m -5.9307798,61.136035 c 9.17598,-9.354169 4.98930001,19.777678 7.48355,29.666918 2.49425,9.889237 -17.1941102,28.419397 -24.8561002,40.892227 -7.66198,12.47284 -16.7486,35.36841 -24.3215,51.31576 -7.5729,15.94735 -29.57757,29.31029 -42.76314,45.43582 -13.18556,16.12553 -52.83,5.07786 -77.77542,9.08716 -24.94543,4.00932 -66.63895,-4.63293 -104.76966,-6.41447 -38.13072,-1.78153 -9.0869,-18.17459 -13.63075,-27.26149 -4.54385,-9.08689 24.58906,-11.0474 36.8832,-16.57071 12.29413,-5.52331 86.23923,-17.37278 119.46948,-23.51972 33.23025,-6.14693 38.13071,-18.1746 61.73925,-25.92515 23.60855,-7.75055 16.83826,-20.22365 32.07236,-39.021347 15.2341,-18.79769 21.29274,-28.330826 30.4687302,-37.684998 z"
       sodipodi:nodetypes="sssssssssssss" />
    <path
       style="fill:none;fill-opacity:1;stroke:#bdbdbd;stroke-width:1;stroke-linecap:butt;stroke-linejoin:miter;stroke-opacity:1;stroke-miterlimit:4;stroke-dasharray:none"
       d="m -64.99736,156.01671 c 1.989365,1.43345 3.433458,3.55874 4.220959,5.88086 0.787501,2.32211 0.939975,4.83265 0.637121,7.26588 -0.605707,4.86648 -2.958319,9.32303 -5.39261,13.58022 -5.247936,9.17782 -11.116533,18.08021 -18.435017,25.70995 -7.318484,7.62974 -16.170383,13.9738 -26.199003,17.32044 -13.21001,4.40829 -27.50465,3.40762 -41.42678,3.74178 -14.24592,0.34193 -28.41969,2.13221 -42.65533,2.77215 -14.23564,0.63994 -28.72029,0.0945 -42.33637,-4.1085 -4.56289,-1.40848 -9.11828,-3.29483 -12.56973,-6.59501 -1.72573,-1.6501 -3.14622,-3.64362 -3.989,-5.87759 -0.84278,-2.23398 -1.09042,-4.71318 -0.54653,-7.03807 0.52053,-2.22503 1.75042,-4.25396 3.36134,-5.87465 1.61092,-1.62069 3.59231,-2.8456 5.69842,-3.73219 4.21221,-1.77316 8.84644,-2.2029 13.39088,-2.68756 21.57775,-2.30122 42.99875,-6.29353 64.67923,-7.21628 12.29433,-0.52326 24.67169,-0.06 36.84642,-1.84892 12.17473,-1.78893 24.41344,-6.08448 33.1782,-14.7218 4.664453,-4.59663 8.229973,-10.30042 13.379113,-14.34672 2.57457,-2.02315 5.560057,-3.60803 8.788269,-4.15592 3.228211,-0.5479 6.713853,0.0177 9.370418,1.93193 z"
       id="path1001"
       inkscape:connector-curvature="0"
       inkscape:path-effect="#path-effect1003"
       inkscape:original-d="m -64.99736,156.01671 c 8.99781,-4.36513 -0.17793,17.01591 -0.53453,26.72696 -0.35663,9.71106 -29.93393,29.48847 -44.63402,43.03039 -14.70009,13.54191 -27.61759,2.49426 -41.42678,3.74178 -13.80919,1.24752 -56.66087,-0.89117 -84.9917,-1.33635 -28.33084,-0.44518 -11.40324,-13.00738 -17.10526,-19.51067 -5.70201,-6.5033 14.96736,-8.19653 22.45064,-12.2944 7.48329,-4.09787 45.25791,-4.90021 64.67923,-7.21628 19.42132,-2.31608 43.03066,-9.80015 70.02462,-16.57072 26.99396,-6.77056 22.53999,-12.20557 31.5378,-16.57071 z"
       sodipodi:nodetypes="scssssssss" />
    <path
       style="fill:none;fill-opacity:1;stroke:#bdbdbd;stroke-width:1;stroke-linecap:butt;stroke-linejoin:miter;stroke-opacity:1;stroke-miterlimit:4;stroke-dasharray:none"
       d="m -99.20786,192.36537 c 1.25364,0.69324 2.321071,1.70937 3.112092,2.90372 0.791021,1.19435 1.307828,2.56375 1.546845,3.97622 0.478032,2.82493 -0.163154,5.77116 -1.478567,8.31644 -1.380676,2.67156 -3.474103,4.93098 -5.84976,6.77482 -2.37566,1.84383 -5.03446,3.29102 -7.7476,4.58807 -7.62915,3.64721 -15.85197,6.17848 -24.28354,6.82256 -16.91425,1.29206 -33.5962,-4.99235 -50.55845,-4.78399 -8.56275,0.10518 -17.00508,1.86343 -25.47445,3.12896 -2.6234,0.392 -5.28445,0.73774 -7.9219,0.45541 -2.63746,-0.28232 -5.28347,-1.25201 -7.13134,-3.15497 -1.29443,-1.33302 -2.14608,-3.09281 -2.36978,-4.93738 -0.2237,-1.84457 0.18521,-3.76291 1.15757,-5.34626 0.97217,-1.58304 2.46922,-2.79871 4.12113,-3.6486 1.65191,-0.84989 3.46013,-1.35435 5.27916,-1.73152 6.03631,-1.2516 12.26043,-1.15047 18.39804,-1.72776 11.90351,-1.11962 23.69325,-4.80299 35.5904,-3.61763 5.8076,0.57864 11.43154,2.30569 17.15853,3.43026 5.72699,1.12457 11.77124,1.62617 17.31137,-0.2096 4.83854,-1.60329 8.91789,-4.856 13.10408,-7.76424 2.3718,-1.64775 4.85104,-3.22101 7.61892,-4.04522 1.38395,-0.41211 2.83241,-0.63083 4.27473,-0.56117 1.44231,0.0697 2.87886,0.4331 4.14252,1.13188 z"
       id="path1009"
       inkscape:connector-curvature="0"
       inkscape:path-effect="#path-effect1011"
       inkscape:original-d="m -99.20786,192.36537 c 5.34513,-1.1579 3.00245,8.87074 3.18037,15.19638 0.17791,6.32564 -2.63905,6.81904 -13.59736,11.36289 -10.95832,4.54385 -14.92885,7.44593 -24.28354,6.82256 -9.3547,-0.62336 -42.27283,-4.07153 -50.55845,-4.78399 -8.28562,-0.71245 -17.99064,2.1487 -25.47445,3.12896 -7.48381,0.98025 -8.46033,-0.91803 -15.05324,-2.69956 -6.59292,-1.78153 -1.12286,-10.19481 -1.21221,-10.28364 -0.0894,-0.0888 6.01514,-1.19316 9.40029,-5.38012 3.38515,-4.18696 9.93477,-0.83712 18.39804,-1.72776 8.46328,-0.89063 26.05805,-2.727 35.5904,-3.61763 9.53235,-0.89064 24.4921,1.70587 34.4699,3.22066 9.9778,1.5148 7.22441,-4.73545 13.10408,-7.76424 5.87966,-3.02879 10.69104,-2.3166 16.03617,-3.47451 z"
       sodipodi:nodetypes="scssssscssssss" />
    <path
       style="fill:none;fill-opacity:1;stroke:#bdbdbd;stroke-width:1;stroke-linecap:butt;stroke-linejoin:miter;stroke-opacity:1;stroke-miterlimit:4;stroke-dasharray:none"
       d="m -112.56267,204.97232 c 1.02427,0.0383 2.04352,0.29752 2.9456,0.78419 0.90207,0.48667 1.68397,1.20302 2.21846,2.0776 0.53449,0.87459 0.81628,1.90718 0.76607,2.93093 -0.0502,1.02375 -0.43764,2.0334 -1.11092,2.80624 -0.92709,1.0642 -2.32117,1.62089 -3.7133,1.85325 -1.39213,0.23236 -2.81364,0.1772 -4.2242,0.22562 -3.83532,0.13167 -7.61108,1.03371 -11.2448,2.26786 -3.46671,1.17742 -6.92266,2.67842 -10.58334,2.74033 -4.44057,0.0751 -8.6589,-1.97976 -13.08742,-2.31511 -1.49049,-0.11287 -2.99036,-0.0294 -4.48142,-0.1344 -1.49106,-0.10503 -3.00959,-0.41565 -4.25928,-1.23576 -1.14275,-0.74993 -2.01146,-1.92366 -2.34349,-3.24957 -0.33203,-1.32591 -0.11055,-2.79134 0.6426,-3.93198 0.50008,-0.75736 1.21717,-1.36054 2.02293,-1.77817 0.80577,-0.41763 1.69834,-0.65416 2.60063,-0.75182 1.80459,-0.19533 3.6202,0.15506 5.39281,0.54562 7.39663,1.62972 14.94409,4.00554 22.39509,2.64583 2.83141,-0.5167 5.54408,-1.56396 8.12648,-2.83482 1.26558,-0.62282 2.50673,-1.30155 3.81825,-1.82072 1.31151,-0.51917 2.7097,-0.8778 4.11925,-0.82512 z"
       id="path1013"
       inkscape:connector-curvature="0"
       inkscape:path-effect="#path-effect1015"
       inkscape:original-d="m -112.56267,204.97232 c 2.2676,-0.5037 3.55955,6.01586 4.81921,8.59896 1.25965,2.58311 -4.97643,1.13367 -7.9375,2.07887 -2.96108,0.94521 -7.0238,1.13367 -11.2448,2.26786 -4.221,1.13419 -5.60639,2.42508 -10.58334,2.74033 -2.48847,0.15762 -8.90613,-1.47247 -13.08742,-2.31511 -4.1813,-0.84264 -6.12623,-0.89782 -8.7407,-1.37016 -5.22893,-0.94468 -1.13366,-4.78796 -1.70089,-7.18155 -0.56723,-2.39358 5.41793,-1.66966 10.01637,-1.98437 4.59845,-0.31472 15.46579,2.1416 22.39509,2.64583 6.9293,0.50424 5.22893,-1.51217 8.12648,-2.83482 2.89755,-1.32265 5.66991,-2.14213 7.9375,-2.64584 z"
       sodipodi:nodetypes="cccssssssssc" />
    <circle
       style="opacity:1;fill:#000000;fill-opacity:1;stroke:#000000;stroke-width:0.70563465;stroke-miterlimit:4;stroke-dasharray:none;stroke-opacity:1"
       id="circle12219"
       cx="-246.49277"
       cy="110.19653"
       r="2.1471827" />
    <circle
       style="opacity:1;fill:#000000;fill-opacity:1;stroke:#000000;stroke-width:0.70563465;stroke-miterlimit:4;stroke-dasharray:none;stroke-opacity:1"
       id="circle12219-7"
       cx="-103.99575"
       cy="26.285814"
       r="2.1471827" />
    <circle
       style="opacity:1;fill:#000000;fill-opacity:1;stroke:#000000;stroke-width:0.70563465;stroke-miterlimit:4;stroke-dasharray:none;stroke-opacity:1"
       id="circle12219-9"
       cx="-230.61777"
       cy="126.4495"
       r="2.1471827" />
    <circle
       style="opacity:1;fill:#000000;fill-opacity:1;stroke:#000000;stroke-width:0.70563465;stroke-miterlimit:4;stroke-dasharray:none;stroke-opacity:1"
       id="circle12219-95"
       cx="-244.98085"
       cy="134.38701"
       r="2.1471827" />
    <circle
       style="opacity:1;fill:#000000;fill-opacity:1;stroke:#000000;stroke-width:0.70563465;stroke-miterlimit:4;stroke-dasharray:none;stroke-opacity:1"
       id="circle12219-94"
       cx="-121.38265"
       cy="67.485222"
       r="2.1471827" />
    <circle
       style="opacity:1;fill:#000000;fill-opacity:1;stroke:#000000;stroke-width:0.70563465;stroke-miterlimit:4;stroke-dasharray:none;stroke-opacity:1"
       id="circle12219-75"
       cx="-103.61777"
       cy="60.303673"
       r="2.1471827" />
    <circle
       style="opacity:1;fill:#000000;fill-opacity:1;stroke:#000000;stroke-width:0.70563465;stroke-miterlimit:4;stroke-dasharray:none;stroke-opacity:1"
       id="circle12219-92"
       cx="-73.757652"
       cy="175.5864"
       r="2.1471827" />
    <circle
       style="opacity:1;fill:#000000;fill-opacity:1;stroke:#000000;stroke-width:0.70563465;stroke-miterlimit:4;stroke-dasharray:none;stroke-opacity:1"
       id="circle12219-3"
       cx="-110.42135"
       cy="192.59534"
       r="2.1471827" />
    <circle
       style="opacity:1;fill:#000000;fill-opacity:1;stroke:#000000;stroke-width:0.70563465;stroke-miterlimit:4;stroke-dasharray:none;stroke-opacity:1"
       id="circle12219-77"
       cx="-100.59396"
       cy="203.17868"
       r="2.1471827" />
    <circle
       style="opacity:1;fill:#000000;fill-opacity:1;stroke:#000000;stroke-width:0.70563465;stroke-miterlimit:4;stroke-dasharray:none;stroke-opacity:1"
       id="circle12219-5"
       cx="-148.97491"
       cy="211.49416"
       r="2.1471827" />
    <circle
       style="opacity:1;fill:#000000;fill-opacity:1;stroke:#000000;stroke-width:0.70563465;stroke-miterlimit:4;stroke-dasharray:none;stroke-opacity:1"
       id="circle12219-1"
       cx="-134.61182"
       cy="215.27391"
       r="2.1471827" />
    <circle
       style="opacity:1;fill:#000000;fill-opacity:1;stroke:#000000;stroke-width:0.70563465;stroke-miterlimit:4;stroke-dasharray:none;stroke-opacity:1"
       id="circle12219-50"
       cx="-114.95705"
       cy="224.72331"
       r="2.1471827" />
    <circle
       style="opacity:1;fill:#000000;fill-opacity:1;stroke:#000000;stroke-width:0.70563465;stroke-miterlimit:4;stroke-dasharray:none;stroke-opacity:1"
       id="circle12219-4"
       cx="-230.61775"
       cy="141.19057"
       r="2.1471827" />
    <circle
       style="opacity:1;fill:#000000;fill-opacity:1;stroke:#000000;stroke-width:0.70563465;stroke-miterlimit:4;stroke-dasharray:none;stroke-opacity:1"
       id="circle12219-17"
       cx="-106.86836"
       cy="72.625694"
       r="2.1471827" />
    <circle
       style="opacity:1;fill:#000000;fill-opacity:1;stroke:#000000;stroke-width:0.70563465;stroke-miterlimit:4;stroke-dasharray:none;stroke-opacity:1"
       id="circle12219-51"
       cx="-184.50468"
       cy="214.89594"
       r="2.1471827" />
    <circle
       style="opacity:1;fill:#000000;fill-opacity:1;stroke:#000000;stroke-width:0.70563465;stroke-miterlimit:4;stroke-dasharray:none;stroke-opacity:1"
       id="circle12219-945"
       cx="-119.1148"
       cy="212.25009"
       r="2.1471827" />
    <circle
       style="opacity:1;fill:#000000;fill-opacity:1;stroke:#000000;stroke-width:0.705636;stroke-miterlimit:4;stroke-dasharray:none;stroke-opacity:1"
       id="circle12219-92-5"
       cx="-40.359062"
       cy="102.20296"
       r="2.1471827" />
    <circle
       style="opacity:1;fill:#000000;fill-opacity:1;stroke:#000000;stroke-width:0.705636;stroke-miterlimit:4;stroke-dasharray:none;stroke-opacity:1"
       id="circle12219-92-3"
       cx="-63.344242"
       cy="62.647068"
       r="2.1471827" />
    <circle
       style="opacity:1;fill:#000000;fill-opacity:1;stroke:#000000;stroke-width:0.705636;stroke-miterlimit:4;stroke-dasharray:none;stroke-opacity:1"
       id="circle12219-92-56"
       cx="-160.63036"
       cy="125.18814"
       r="2.1471827" />
    <circle
       style="opacity:1;fill:#000000;fill-opacity:1;stroke:#000000;stroke-width:0.705636;stroke-miterlimit:4;stroke-dasharray:none;stroke-opacity:1"
       id="circle12219-92-2"
       cx="-235.46582"
       cy="129.46445"
       r="2.1471827" />
    <circle
       style="opacity:1;fill:#000000;fill-opacity:1;stroke:#000000;stroke-width:0.705636;stroke-miterlimit:4;stroke-dasharray:none;stroke-opacity:1"
       id="circle12219-92-9"
       cx="-276.09079"
       cy="136.41345"
       r="2.1471827" />
    <circle
       style="opacity:1;fill:#000000;fill-opacity:1;stroke:#000000;stroke-width:0.705636;stroke-miterlimit:4;stroke-dasharray:none;stroke-opacity:1"
       id="circle12219-92-1"
       cx="-238.13852"
       cy="151.91508"
       r="2.1471827" />
    <circle
       style="opacity:1;fill:#000000;fill-opacity:1;stroke:#000000;stroke-width:0.705636;stroke-miterlimit:4;stroke-dasharray:none;stroke-opacity:1"
       id="circle12219-92-27"
       cx="-206.60071"
       cy="129.99899"
       r="2.1471827" />
    <circle
       style="opacity:1;fill:#000000;fill-opacity:1;stroke:#000000;stroke-width:0.705636;stroke-miterlimit:4;stroke-dasharray:none;stroke-opacity:1"
       id="circle12219-92-0"
       cx="-180.94284"
       cy="83.494095"
       r="2.1471827" />
    <circle
       style="opacity:1;fill:#000000;fill-opacity:1;stroke:#000000;stroke-width:0.705636;stroke-miterlimit:4;stroke-dasharray:none;stroke-opacity:1"
       id="circle12219-92-93"
       cx="-165.97574"
       cy="155.12233"
       r="2.1471827" />
    <circle
       style="opacity:1;fill:#000000;fill-opacity:1;stroke:#000000;stroke-width:0.705636;stroke-miterlimit:4;stroke-dasharray:none;stroke-opacity:1"
       id="circle12219-92-6"
       cx="-97.554741"
       cy="121.44637"
       r="2.1471827" />
    <circle
       style="opacity:1;fill:#000000;fill-opacity:1;stroke:#000000;stroke-width:0.705636;stroke-miterlimit:4;stroke-dasharray:none;stroke-opacity:1"
       id="circle12219-92-06"
       cx="-18.977501"
       cy="141.75885"
       r="2.1471827" />
    <circle
       style="opacity:1;fill:#000000;fill-opacity:1;stroke:#000000;stroke-width:0.705636;stroke-miterlimit:4;stroke-dasharray:none;stroke-opacity:1"
       id="circle12219-92-26"
       cx="2.4040616"
       cy="95.253952"
       r="2.1471827" />
    <circle
       style="opacity:1;fill:#000000;fill-opacity:1;stroke:#000000;stroke-width:0.705636;stroke-miterlimit:4;stroke-dasharray:none;stroke-opacity:1"
       id="circle12219-92-18"
       cx="-292.12695"
       cy="173.83119"
       r="2.1471827" />
    <circle
       style="opacity:1;fill:#000000;fill-opacity:1;stroke:#000000;stroke-width:0.705636;stroke-miterlimit:4;stroke-dasharray:none;stroke-opacity:1"
       id="circle12219-92-7"
       cx="-152.61226"
       cy="187.19467"
       r="2.1471827" />
    <circle
       style="opacity:1;fill:#000000;fill-opacity:1;stroke:#000000;stroke-width:0.705636;stroke-miterlimit:4;stroke-dasharray:none;stroke-opacity:1"
       id="circle12219-92-92"
       cx="-129.62709"
       cy="202.16176"
       r="2.1471827" />
    <circle
       style="opacity:1;fill:#000000;fill-opacity:1;stroke:#000000;stroke-width:0.705636;stroke-miterlimit:4;stroke-dasharray:none;stroke-opacity:1"
       id="circle12219-92-02"
       cx="-125.88531"
       cy="216.05978"
       r="2.1471827" />
    <circle
       style="opacity:1;fill:#000000;fill-opacity:1;stroke:#000000;stroke-width:0.705636;stroke-miterlimit:4;stroke-dasharray:none;stroke-opacity:1"
       id="circle12219-92-37"
       cx="-160.63036"
       cy="212.31801"
       r="2.1471827" />
    <circle
       style="opacity:1;fill:#000000;fill-opacity:1;stroke:#000000;stroke-width:0.705636;stroke-miterlimit:4;stroke-dasharray:none;stroke-opacity:1"
       id="circle12219-92-59"
       cx="-120.00538"
       cy="74.406929"
       r="2.1471827" />
    <circle
       style="opacity:1;fill:#000000;fill-opacity:1;stroke:#000000;stroke-width:0.705636;stroke-miterlimit:4;stroke-dasharray:none;stroke-opacity:1"
       id="circle12219-92-22"
       cx="-72.965942"
       cy="24.694796"
       r="2.1471827" />
    <circle
       style="opacity:1;fill:#000000;fill-opacity:1;stroke:#000000;stroke-width:0.705636;stroke-miterlimit:4;stroke-dasharray:none;stroke-opacity:1"
       id="circle12219-92-8"
       cx="-73.500481"
       cy="-2.5666966"
       r="2.1471827" />
    <circle
       style="opacity:1;fill:#000000;fill-opacity:1;stroke:#000000;stroke-width:0.705636;stroke-miterlimit:4;stroke-dasharray:none;stroke-opacity:1"
       id="circle12219-92-97"
       cx="-126.41985"
       cy="104.87566"
       r="2.1471827" />
    <circle
       style="opacity:1;fill:#000000;fill-opacity:1;stroke:#000000;stroke-width:0.705636;stroke-miterlimit:4;stroke-dasharray:none;stroke-opacity:1"
       id="circle12219-92-36"
       cx="-298.0069"
       cy="149.2424"
       r="2.1471827" />
    <circle
       style="opacity:1;fill:#000000;fill-opacity:1;stroke:#000000;stroke-width:0.705636;stroke-miterlimit:4;stroke-dasharray:none;stroke-opacity:1"
       id="circle12219-92-12"
       cx="-240.8112"
       cy="203.23083"
       r="2.1471827" />
    <circle
       style="opacity:1;fill:#000000;fill-opacity:1;stroke:#000000;stroke-width:0.705636;stroke-miterlimit:4;stroke-dasharray:none;stroke-opacity:1"
       id="circle12219-92-931"
       cx="-255.77831"
       cy="229.95779"
       r="2.1471827" />
    <circle
       style="opacity:1;fill:#000000;fill-opacity:1;stroke:#000000;stroke-width:0.705636;stroke-miterlimit:4;stroke-dasharray:none;stroke-opacity:1"
       id="circle12219-92-94"
       cx="-277.15985"
       cy="195.7473"
       r="2.1471827" />
    <circle
       style="opacity:1;fill:#000000;fill-opacity:1;stroke:#000000;stroke-width:0.705636;stroke-miterlimit:4;stroke-dasharray:none;stroke-opacity:1"
       id="circle12219-92-78"
       cx="-185.21915"
       cy="223.54332"
       r="2.1471827" />
    <circle
       style="opacity:1;fill:#000000;fill-opacity:1;stroke:#000000;stroke-width:0.705636;stroke-miterlimit:4;stroke-dasharray:none;stroke-opacity:1"
       id="circle12219-92-4"
       cx="-145.66325"
       cy="217.12886"
       r="2.1471827" />
    <circle
       style="opacity:1;fill:#000000;fill-opacity:1;stroke:#000000;stroke-width:0.705636;stroke-miterlimit:4;stroke-dasharray:none;stroke-opacity:1"
       id="circle12219-92-50"
       cx="-113.05637"
       cy="203.76538"
       r="2.1471827" />
    <circle
       style="opacity:1;fill:#000000;fill-opacity:1;stroke:#000000;stroke-width:0.705636;stroke-miterlimit:4;stroke-dasharray:none;stroke-opacity:1"
       id="circle12219-92-361"
       cx="-160.09581"
       cy="204.83446"
       r="2.1471827" />
  </g>
</svg>
